<svg xmlns="http://www.w3.org/2000/svg" xmlns:xlink="http://www.w3.org/1999/xlink" width="3000" zoomAndPan="magnify" viewBox="0 0 2250 2250.000011" height="3000" preserveAspectRatio="xMidYMid meet" version="1.0"><path fill="#9c9ea4" d="M 1055.28125 542.007812 C 1152.015625 536.894531 1246.472656 548.890625 1338.65625 577.992188 C 1340.242188 587.59375 1336.496094 593.59375 1327.410156 595.984375 C 1183.644531 545.523438 1041.207031 548.523438 900.101562 604.980469 C 893.945312 598.265625 893.195312 591.519531 897.851562 584.738281 C 950.296875 567.96875 1002.769531 553.726562 1055.28125 542.007812 Z M 1055.28125 542.007812 " fill-opacity="1" fill-rule="evenodd"/><path fill="#eaecea" d="M 717.929688 542.007812 C 715.492188 555.964844 709.492188 568.710938 699.9375 580.242188 C 669.238281 601.222656 639.257812 622.964844 609.980469 645.464844 C 607.535156 645.191406 606.039062 643.695312 605.480469 640.964844 C 628.050781 607.847656 652.789062 576.359375 679.699219 546.507812 C 694.039062 523.765625 708.28125 501.273438 722.429688 479.039062 C 726.738281 472.464844 731.984375 466.464844 738.171875 461.046875 C 732.925781 488.09375 726.179688 515.082031 717.929688 542.007812 Z M 717.929688 542.007812 " fill-opacity="1" fill-rule="evenodd"/><path fill="#10171e" d="M 740.421875 546.507812 C 737.171875 544.628906 734.925781 541.628906 733.675781 537.511719 C 732.175781 540.511719 730.671875 543.507812 729.175781 546.507812 C 726.15625 543.121094 722.410156 541.625 717.929688 542.007812 C 726.179688 515.082031 732.925781 488.09375 738.171875 461.046875 C 731.984375 466.464844 726.738281 472.464844 722.429688 479.039062 C 659.613281 531.378906 610.136719 594.347656 573.996094 667.953125 C 576.109375 672.285156 579.109375 672.285156 582.992188 667.953125 C 583.660156 672.683594 582.914062 677.183594 580.742188 681.445312 C 577.800781 676.066406 575.550781 676.066406 573.996094 681.445312 C 577.351562 687.007812 578.847656 693.007812 578.492188 699.4375 C 564.648438 699.183594 551.152344 697.683594 538.011719 694.941406 C 534.941406 698.285156 531.941406 701.277344 529.015625 703.9375 C 527.695312 675.609375 520.949219 648.617188 508.773438 622.972656 C 490.605469 660.058594 471.863281 696.789062 452.550781 733.175781 C 455.21875 735.261719 458.222656 736.011719 461.542969 735.421875 C 461.542969 739.921875 461.542969 744.417969 461.542969 748.917969 C 478.792969 751.183594 478.792969 755.683594 461.542969 762.410156 C 466.546875 765.851562 469.546875 770.351562 470.539062 775.90625 C 462.089844 775.425781 460.589844 777.671875 466.042969 782.652344 C 490.957031 798.835938 514.945312 816.078125 538.011719 834.378906 C 562.011719 855.820312 586.75 876.8125 612.226562 897.351562 C 613.269531 891.789062 615.519531 887.289062 618.976562 883.855469 C 618.976562 889.851562 618.976562 895.851562 618.976562 901.847656 C 614.476562 901.847656 609.980469 901.847656 605.480469 901.847656 C 605.78125 908.410156 604.285156 914.40625 600.984375 919.839844 C 562.964844 886.570312 523.984375 854.332031 484.035156 823.132812 C 481.035156 820.132812 478.039062 820.132812 475.039062 823.132812 C 482.046875 832.363281 488.046875 842.109375 493.03125 852.371094 C 487.6875 857.695312 482.4375 857.695312 477.289062 852.371094 C 475.199219 855.042969 474.449219 858.042969 475.039062 861.367188 C 470.539062 859.871094 467.539062 856.871094 466.042969 852.371094 C 455.972656 833.75 444.726562 815.757812 432.308594 798.394531 C 418.589844 923.375 410.34375 1047.820312 407.570312 1171.730469 C 409.171875 1179.332031 413.671875 1183.828125 421.0625 1185.222656 C 419.84375 1193.679688 422.84375 1199.675781 430.058594 1203.214844 C 427.746094 1211.609375 424.75 1219.859375 421.0625 1227.953125 C 426.644531 1235.742188 431.144531 1243.984375 434.558594 1252.691406 C 473.574219 1305.195312 512.550781 1357.671875 551.503906 1410.125 C 551.503906 1411.621094 551.503906 1413.125 551.503906 1414.621094 C 554.300781 1419.691406 558.050781 1424.1875 562.75 1428.117188 C 568.484375 1418.144531 572.984375 1407.644531 576.242188 1396.628906 C 577.03125 1413.320312 579.28125 1429.816406 582.992188 1446.105469 C 658.035156 1396.59375 731.5 1344.867188 803.394531 1290.925781 C 824.074219 1277.003906 840.570312 1259.765625 852.871094 1239.199219 C 852.128906 1252.773438 852.878906 1266.269531 855.121094 1279.679688 C 856.84375 1282.183594 859.089844 1283.679688 861.867188 1284.179688 C 846.695312 1342.019531 833.199219 1400.492188 821.386719 1459.601562 C 822.882812 1464.097656 824.386719 1468.597656 825.882812 1473.09375 C 870.34375 1493.078125 915.324219 1511.820312 960.824219 1529.320312 C 986.570312 1562.066406 1008.308594 1597.296875 1026.042969 1635.023438 C 1043.863281 1725.921875 1008.628906 1760.40625 920.339844 1738.476562 C 909 1731.644531 897.757812 1724.148438 886.605469 1715.988281 C 875.578125 1688.890625 862.832031 1662.65625 848.371094 1637.273438 C 739.890625 1601.628906 634.9375 1558.148438 533.511719 1506.832031 C 482.632812 1455.25 443.648438 1396.027344 416.566406 1329.160156 C 402.433594 1283.761719 387.4375 1238.78125 371.585938 1194.21875 C 381.347656 1047.0625 394.09375 900.125 409.816406 753.414062 C 448.347656 695.097656 479.082031 632.875 502.027344 566.75 C 595.570312 512.917969 688.527344 458.195312 780.902344 402.570312 C 784.078125 412.761719 783.328125 423.257812 778.652344 434.058594 C 766.515625 472.296875 753.769531 509.78125 740.421875 546.507812 Z M 740.421875 546.507812 " fill-opacity="1" fill-rule="evenodd"/><path fill="#bbbebf" d="M 722.429688 479.039062 C 708.28125 501.273438 694.039062 523.765625 679.699219 546.507812 C 652.789062 576.359375 628.050781 607.847656 605.480469 640.964844 C 606.039062 643.695312 607.535156 645.191406 609.980469 645.464844 C 601.164062 652.914062 592.167969 660.410156 582.992188 667.953125 C 579.109375 672.285156 576.109375 672.285156 573.996094 667.953125 C 610.136719 594.347656 659.613281 531.378906 722.429688 479.039062 Z M 722.429688 479.039062 " fill-opacity="1" fill-rule="evenodd"/><path fill="#9ea1a7" d="M 1059.777344 609.480469 C 1146.675781 605.398438 1230.636719 618.890625 1311.667969 649.960938 C 1311.667969 655.957031 1311.667969 661.957031 1311.667969 667.953125 C 1279.882812 659.609375 1248.398438 649.863281 1217.207031 638.714844 C 1118.933594 621.605469 1023.726562 631.351562 931.585938 667.953125 C 923.179688 664.046875 920.929688 658.796875 924.839844 652.210938 C 968.972656 633.710938 1013.953125 619.464844 1059.777344 609.480469 Z M 1059.777344 609.480469 " fill-opacity="1" fill-rule="evenodd"/><path fill="#b9bdbd" d="M 641.464844 515.019531 C 644.789062 514.433594 647.789062 515.183594 650.460938 517.269531 C 634.597656 533.132812 618.851562 548.878906 603.230469 564.5 C 586.378906 596.71875 568.386719 628.203125 549.257812 658.957031 C 544.003906 637.9375 538.753906 616.949219 533.511719 595.984375 C 535.011719 591.488281 536.511719 586.988281 538.011719 582.492188 C 573.890625 561.503906 608.378906 539.011719 641.464844 515.019531 Z M 641.464844 515.019531 " fill-opacity="1" fill-rule="evenodd"/><path fill="#9c9fa5" d="M 1068.773438 676.949219 C 1144.351562 668.972656 1214.816406 683.964844 1280.179688 721.929688 C 1278.296875 727.199219 1275.300781 731.699219 1271.183594 735.421875 C 1169.105469 681.734375 1067.152344 681.734375 965.320312 735.421875 C 956.371094 731.089844 954.871094 725.097656 960.824219 717.429688 C 996.027344 700.222656 1032.011719 686.726562 1068.773438 676.949219 Z M 1068.773438 676.949219 " fill-opacity="1" fill-rule="evenodd"/><path fill="#c6cbcf" d="M 529.015625 703.9375 C 504.640625 710.882812 482.148438 721.378906 461.542969 735.421875 C 458.222656 736.011719 455.21875 735.261719 452.550781 733.175781 C 471.863281 696.789062 490.605469 660.058594 508.773438 622.972656 C 520.949219 648.617188 527.695312 675.609375 529.015625 703.9375 Z M 529.015625 703.9375 " fill-opacity="1" fill-rule="evenodd"/><path fill="#9ea1a6" d="M 1082.269531 744.417969 C 1118.171875 741.191406 1152.65625 746.4375 1185.722656 760.164062 C 1204.632812 767.339844 1221.125 777.835938 1235.199219 791.648438 C 1234.691406 797.40625 1231.691406 801.152344 1226.203125 802.894531 C 1151.996094 755.011719 1077.78125 755.011719 1003.554688 802.894531 C 994.664062 798.203125 992.417969 792.203125 996.808594 784.902344 C 1024.445312 768.738281 1052.933594 755.246094 1082.269531 744.417969 Z M 1082.269531 744.417969 " fill-opacity="1" fill-rule="evenodd"/><path fill="#dee0df" d="M 470.539062 775.90625 C 527.351562 780.140625 584.324219 781.640625 641.464844 780.402344 C 637.75 796.757812 634.753906 813.253906 632.46875 829.882812 C 600.910156 827.542969 569.425781 824.542969 538.011719 820.886719 C 538.011719 825.382812 538.011719 829.882812 538.011719 834.378906 C 514.945312 816.078125 490.957031 798.835938 466.042969 782.652344 C 460.589844 777.671875 462.089844 775.425781 470.539062 775.90625 Z M 470.539062 775.90625 " fill-opacity="1" fill-rule="evenodd"/><path fill="#d7dada" d="M 538.011719 834.378906 C 566.589844 838.296875 595.078125 842.796875 623.472656 847.875 C 623.136719 860.042969 621.636719 872.039062 618.976562 883.855469 C 615.519531 887.289062 613.269531 891.789062 612.226562 897.351562 C 586.75 876.8125 562.011719 855.820312 538.011719 834.378906 Z M 538.011719 834.378906 " fill-opacity="1" fill-rule="evenodd"/><path fill="#bbbec1" d="M 600.984375 919.839844 C 603.425781 920.109375 604.921875 921.609375 605.480469 924.339844 C 602.621094 934.59375 598.121094 943.589844 591.988281 951.328125 C 589 936.875 580.003906 927.132812 565 922.089844 C 550.007812 907.097656 535.011719 892.101562 520.019531 877.109375 C 515.804688 873.996094 512.808594 874.75 511.023438 879.359375 C 505.085938 870.53125 499.085938 861.535156 493.03125 852.371094 C 488.046875 842.109375 482.046875 832.363281 475.039062 823.132812 C 478.039062 820.132812 481.035156 820.132812 484.035156 823.132812 C 523.984375 854.332031 562.964844 886.570312 600.984375 919.839844 Z M 600.984375 919.839844 " fill-opacity="1" fill-rule="evenodd"/><path fill="#dadcd9" d="M 466.042969 852.371094 C 467.539062 856.871094 470.539062 859.871094 475.039062 861.367188 C 503.492188 912.265625 531.980469 963.242188 560.5 1014.300781 C 524.554688 1059.242188 484.070312 1099.726562 439.054688 1135.746094 C 441.171875 1085.957031 446.417969 1036.480469 454.796875 987.3125 C 456.296875 943.828125 457.796875 900.351562 459.296875 856.871094 C 461.019531 854.367188 463.269531 852.871094 466.042969 852.371094 Z M 466.042969 852.371094 " fill-opacity="1" fill-rule="evenodd"/><path fill="#c8c8c6" d="M 466.042969 852.371094 C 463.269531 852.871094 461.019531 854.367188 459.296875 856.871094 C 457.796875 900.351562 456.296875 943.828125 454.796875 987.3125 C 446.417969 1036.480469 441.171875 1085.957031 439.054688 1135.746094 C 428.558594 1147.742188 418.0625 1159.734375 407.570312 1171.730469 C 410.34375 1047.820312 418.589844 923.375 432.308594 798.394531 C 444.726562 815.757812 455.972656 833.75 466.042969 852.371094 Z M 466.042969 852.371094 " fill-opacity="1" fill-rule="evenodd"/><path fill="#dddede" d="M 1824.4375 1189.722656 C 1824.574219 1194.207031 1822.324219 1197.207031 1817.691406 1198.71875 C 1773.542969 1207.714844 1730.8125 1219.710938 1689.5 1234.703125 C 1676.429688 1240.328125 1662.933594 1242.578125 1649.015625 1241.449219 C 1611.863281 1228.859375 1575.878906 1213.867188 1541.066406 1196.46875 C 1580.625 1142.675781 1622.609375 1090.949219 1667.007812 1041.289062 C 1718.101562 1092.382812 1770.574219 1141.863281 1824.4375 1189.722656 Z M 1824.4375 1189.722656 " fill-opacity="1" fill-rule="evenodd"/><path fill="#dcdddc" d="M 430.058594 1203.214844 C 422.84375 1199.675781 419.84375 1193.679688 421.0625 1185.222656 C 475.808594 1140.460938 528.285156 1092.480469 578.492188 1041.289062 C 622.894531 1090.949219 664.878906 1142.675781 704.4375 1196.46875 C 666.960938 1215.957031 627.976562 1231.699219 587.488281 1243.699219 C 535.652344 1227.414062 483.179688 1213.921875 430.058594 1203.214844 Z M 430.058594 1203.214844 " fill-opacity="1" fill-rule="evenodd"/><path fill="#0e151c" d="M 1864.921875 1144.742188 C 1865.652344 1155.34375 1864.90625 1165.835938 1862.671875 1176.226562 C 1856.957031 1170.007812 1850.207031 1165.507812 1842.429688 1162.734375 C 1832.304688 1042.773438 1821.0625 922.824219 1808.695312 802.894531 C 1798.898438 819.507812 1789.152344 836.003906 1779.460938 852.371094 C 1748.476562 906.121094 1716.992188 959.347656 1685 1012.050781 C 1720.03125 1058.332031 1760.511719 1099.558594 1806.445312 1135.746094 C 1816.941406 1147.742188 1827.4375 1159.734375 1837.933594 1171.730469 C 1838.433594 1174.503906 1839.929688 1176.753906 1842.429688 1178.476562 C 1835.386719 1181.210938 1829.386719 1184.960938 1824.4375 1189.722656 C 1770.574219 1141.863281 1718.101562 1092.382812 1667.007812 1041.289062 C 1622.609375 1090.949219 1580.625 1142.675781 1541.066406 1196.46875 C 1575.878906 1213.867188 1611.863281 1228.859375 1649.015625 1241.449219 C 1662.933594 1242.578125 1676.429688 1240.328125 1689.5 1234.703125 C 1701.136719 1238.332031 1703.382812 1244.332031 1696.246094 1252.691406 C 1694.382812 1250.636719 1692.136719 1249.136719 1689.5 1248.195312 C 1685.320312 1253.542969 1683.824219 1259.539062 1685 1266.1875 C 1675.171875 1267.105469 1666.175781 1270.101562 1658.011719 1275.183594 C 1565.503906 1240.554688 1474.792969 1201.570312 1385.882812 1158.234375 C 1383.710938 1162.5 1382.964844 1166.996094 1383.636719 1171.730469 C 1376.582031 1182.273438 1378.078125 1191.269531 1388.132812 1198.71875 C 1383.378906 1200.542969 1377.378906 1200.542969 1370.140625 1198.71875 C 1370.847656 1192.542969 1370.097656 1186.542969 1367.890625 1180.726562 C 1365.390625 1190.148438 1363.140625 1190.898438 1361.144531 1182.972656 C 1368.554688 1171.46875 1367.050781 1167.71875 1356.648438 1171.730469 C 1357.027344 1165.003906 1354.035156 1160.507812 1347.652344 1158.234375 C 1295.546875 1178.601562 1243.066406 1198.097656 1190.222656 1216.710938 C 1176.792969 1238.996094 1167.796875 1262.988281 1163.234375 1288.675781 C 1161.5 1312.371094 1171.996094 1325.867188 1194.71875 1329.160156 C 1193.539062 1297.449219 1200.289062 1267.460938 1214.960938 1239.199219 C 1231.777344 1231.84375 1249.023438 1225.84375 1266.6875 1221.207031 C 1271.417969 1220.535156 1275.917969 1221.285156 1280.179688 1223.457031 C 1283.996094 1228.800781 1283.996094 1235.546875 1280.179688 1243.699219 C 1248.179688 1244.957031 1229.433594 1261.449219 1223.957031 1293.175781 C 1221.71875 1305.078125 1220.96875 1317.074219 1221.707031 1329.160156 C 1233.398438 1328.9375 1243.144531 1324.441406 1250.945312 1315.664062 C 1257.023438 1301.183594 1260.777344 1286.191406 1262.1875 1270.683594 C 1294.28125 1265.285156 1325.769531 1257.789062 1356.648438 1248.195312 C 1361.128906 1247.808594 1364.875 1249.3125 1367.890625 1252.691406 C 1373.695312 1241.632812 1380.441406 1231.140625 1388.132812 1221.207031 C 1391.15625 1227.726562 1394.15625 1233.722656 1397.128906 1239.199219 C 1396.539062 1242.523438 1397.289062 1245.523438 1399.378906 1248.195312 C 1417.179688 1266.355469 1435.917969 1282.847656 1455.601562 1297.671875 C 1456.832031 1306.449219 1453.835938 1313.195312 1446.605469 1317.914062 C 1449.988281 1320.933594 1451.492188 1324.679688 1451.105469 1329.160156 C 1440.277344 1323.339844 1430.53125 1315.839844 1421.867188 1306.667969 C 1431.820312 1352.675781 1441.570312 1399.152344 1451.105469 1446.105469 C 1451.734375 1452.988281 1454.734375 1457.488281 1460.101562 1459.601562 C 1450.074219 1467.015625 1439.582031 1470.007812 1428.613281 1468.597656 C 1411.882812 1404.941406 1395.386719 1341.21875 1379.136719 1277.433594 C 1349.839844 1278.371094 1321.355469 1284.371094 1293.675781 1295.425781 C 1281.71875 1343.058594 1250.984375 1364.796875 1201.464844 1360.644531 C 1156.472656 1358.375 1133.230469 1334.386719 1131.746094 1288.675781 C 1139.542969 1254.3125 1153.035156 1222.074219 1172.230469 1191.96875 C 1234.644531 1167.523438 1297.617188 1144.28125 1361.144531 1122.25 C 1381.511719 1132.296875 1402.503906 1139.042969 1424.117188 1142.492188 C 1453.359375 1091.488281 1484.84375 1042.011719 1518.574219 994.058594 C 1480.621094 996.144531 1443.140625 1000.644531 1406.125 1007.550781 C 1385.273438 985.953125 1361.285156 968.707031 1334.15625 955.824219 C 1318.535156 925.996094 1302.042969 896.757812 1284.679688 868.113281 C 1299.757812 839.425781 1314 810.1875 1327.410156 780.402344 C 1328.90625 747.417969 1330.410156 714.429688 1331.90625 681.445312 C 1354.902344 670.34375 1375.144531 656.101562 1392.632812 638.714844 C 1362.203125 583.308594 1338.960938 525.582031 1322.910156 465.542969 C 1382.996094 488.804688 1440.71875 517.289062 1496.085938 551.003906 C 1497.582031 549.507812 1499.085938 548.007812 1500.582031 546.507812 C 1483.757812 500.527344 1468.765625 454.046875 1455.601562 407.070312 C 1465.296875 406.492188 1474.292969 408.742188 1482.589844 413.816406 C 1569.191406 467.242188 1656.902344 518.972656 1745.722656 568.996094 C 1769.65625 636.300781 1799.640625 700.769531 1835.683594 762.410156 C 1847.207031 889.652344 1856.949219 1017.097656 1864.921875 1144.742188 Z M 1864.921875 1144.742188 " fill-opacity="1" fill-rule="evenodd"/><path fill="#dcdddb" d="M 1586.046875 991.808594 C 1607.28125 999.824219 1626.769531 1010.320312 1644.519531 1023.296875 C 1603.398438 1080.191406 1559.167969 1134.167969 1511.828125 1185.222656 C 1505.265625 1183.839844 1500.015625 1180.835938 1496.085938 1176.226562 C 1518.988281 1121.429688 1546.726562 1068.953125 1579.296875 1018.796875 C 1582.953125 1010.089844 1585.203125 1001.09375 1586.046875 991.808594 Z M 1586.046875 991.808594 " fill-opacity="1" fill-rule="evenodd"/><path fill="#c3c6c7" d="M 1842.429688 1162.734375 C 1843.203125 1167.195312 1841.703125 1170.191406 1837.933594 1171.730469 C 1827.4375 1159.734375 1816.941406 1147.742188 1806.445312 1135.746094 C 1809.828125 1112.148438 1807.582031 1088.15625 1799.699219 1063.777344 C 1795.144531 1008.394531 1792.148438 952.914062 1790.703125 897.351562 C 1790.585938 880.804688 1786.835938 865.8125 1779.460938 852.371094 C 1789.152344 836.003906 1798.898438 819.507812 1808.695312 802.894531 C 1821.0625 922.824219 1832.304688 1042.773438 1842.429688 1162.734375 Z M 1842.429688 1162.734375 " fill-opacity="1" fill-rule="evenodd"/><path fill="#f5f9f9" d="M 1586.046875 991.808594 C 1585.203125 1001.09375 1582.953125 1010.089844 1579.296875 1018.796875 C 1546.726562 1068.953125 1518.988281 1121.429688 1496.085938 1176.226562 C 1478.523438 1173.441406 1463.53125 1165.949219 1451.105469 1153.738281 C 1482.207031 1099.019531 1514.445312 1045.042969 1547.8125 991.808594 C 1551.136719 986.976562 1555.632812 983.976562 1561.304688 982.8125 C 1569.402344 986.5 1577.652344 989.496094 1586.046875 991.808594 Z M 1586.046875 991.808594 " fill-opacity="1" fill-rule="evenodd"/><path fill="#c9ced0" d="M 1613.03125 937.832031 C 1624.355469 949.195312 1631.851562 963.4375 1635.523438 980.5625 C 1634.023438 982.8125 1632.523438 985.0625 1631.023438 987.3125 C 1615.898438 981.269531 1602.402344 973.027344 1590.542969 962.570312 C 1597.90625 954.351562 1605.398438 946.105469 1613.03125 937.832031 Z M 1613.03125 937.832031 " fill-opacity="1" fill-rule="evenodd"/><path fill="#babdbd" d="M 1446.605469 937.832031 C 1471.363281 941.773438 1495.351562 948.519531 1518.574219 958.074219 C 1487.351562 966.269531 1455.863281 973.015625 1424.117188 978.316406 C 1416.195312 975.910156 1410.199219 971.410156 1406.125 964.820312 C 1423.507812 961.398438 1437.003906 952.402344 1446.605469 937.832031 Z M 1446.605469 937.832031 " fill-opacity="1" fill-rule="evenodd"/><path fill="#bdc2c6" d="M 1505.082031 928.835938 C 1506.957031 926.03125 1509.957031 924.53125 1514.078125 924.339844 C 1536.597656 926.878906 1559.089844 929.878906 1581.546875 933.335938 C 1577.050781 940.832031 1571.054688 946.828125 1563.554688 951.328125 C 1544.753906 941.765625 1525.257812 934.269531 1505.082031 928.835938 Z M 1505.082031 928.835938 " fill-opacity="1" fill-rule="evenodd"/><path fill="#d6d8d7" d="M 1761.46875 820.886719 C 1764.792969 820.296875 1767.792969 821.046875 1770.464844 823.132812 C 1735.792969 879.738281 1700.554688 935.960938 1664.761719 991.808594 C 1652.652344 968.992188 1645.152344 945 1642.269531 919.839844 C 1684.167969 889.160156 1723.898438 856.175781 1761.46875 820.886719 Z M 1761.46875 820.886719 " fill-opacity="1" fill-rule="evenodd"/><path fill="#d4d7d6" d="M 1419.617188 906.347656 C 1423.558594 906.9375 1426.558594 905.4375 1428.613281 901.847656 C 1420.558594 898.835938 1413.0625 895.835938 1406.125 892.851562 C 1467.234375 886.570312 1527.210938 874.578125 1586.046875 856.871094 C 1591.203125 858.300781 1594.957031 861.296875 1597.289062 865.867188 C 1600.34375 885.558594 1604.089844 905.046875 1608.535156 924.339844 C 1544.753906 919.902344 1481.78125 913.910156 1419.617188 906.347656 Z M 1419.617188 906.347656 " fill-opacity="1" fill-rule="evenodd"/><path fill="#dcdddd" d="M 1779.460938 852.371094 C 1786.835938 865.8125 1790.585938 880.804688 1790.703125 897.351562 C 1792.148438 952.914062 1795.144531 1008.394531 1799.699219 1063.777344 C 1807.582031 1088.15625 1809.828125 1112.148438 1806.445312 1135.746094 C 1760.511719 1099.558594 1720.03125 1058.332031 1685 1012.050781 C 1716.992188 959.347656 1748.476562 906.121094 1779.460938 852.371094 Z M 1779.460938 852.371094 " fill-opacity="1" fill-rule="evenodd"/><path fill="#eaeeef" d="M 1509.578125 748.917969 C 1519.15625 771.34375 1513.160156 791.585938 1491.585938 809.640625 C 1494.089844 811.363281 1495.585938 813.613281 1496.085938 816.386719 C 1462.332031 840.011719 1427.847656 862.5 1392.632812 883.855469 C 1396.484375 888.019531 1400.984375 891.019531 1406.125 892.851562 C 1413.0625 895.835938 1420.558594 898.835938 1428.613281 901.847656 C 1426.558594 905.4375 1423.558594 906.9375 1419.617188 906.347656 C 1412.121094 906.347656 1404.628906 906.347656 1397.128906 906.347656 C 1396.363281 912.292969 1397.863281 917.542969 1401.628906 922.089844 C 1417.277344 925.984375 1432.265625 931.234375 1446.605469 937.832031 C 1437.003906 952.402344 1423.507812 961.398438 1406.125 964.820312 C 1379.554688 953.496094 1359.3125 935.503906 1345.402344 910.84375 C 1342.402344 904.847656 1342.402344 898.847656 1345.402344 892.851562 C 1362.289062 866.953125 1382.527344 843.710938 1406.125 823.132812 C 1429.230469 817.429688 1451.722656 809.9375 1473.59375 800.644531 C 1488.40625 785.234375 1500.398438 767.992188 1509.578125 748.917969 Z M 1509.578125 748.917969 " fill-opacity="1" fill-rule="evenodd"/><path fill="#d2d7d9" d="M 1572.550781 793.898438 C 1582.683594 807.449219 1585.683594 822.441406 1581.546875 838.878906 C 1541.183594 850.847656 1500.699219 860.59375 1460.101562 868.113281 C 1497.878906 843.265625 1535.363281 818.527344 1572.550781 793.898438 Z M 1572.550781 793.898438 " fill-opacity="1" fill-rule="evenodd"/><path fill="#dbdddc" d="M 1707.492188 775.90625 C 1733.023438 775.160156 1758.511719 775.910156 1783.957031 778.152344 C 1730.535156 814.628906 1679.558594 854.359375 1631.023438 897.351562 C 1621.652344 882.367188 1617.152344 865.878906 1617.53125 847.875 C 1644.695312 842.84375 1671.683594 836.847656 1698.496094 829.882812 C 1668.199219 824.40625 1638.210938 825.910156 1608.535156 834.378906 C 1604.101562 816.644531 1601.105469 798.652344 1599.539062 780.402344 C 1636.351562 781.871094 1672.335938 780.367188 1707.492188 775.90625 Z M 1707.492188 775.90625 " fill-opacity="1" fill-rule="evenodd"/><path fill="#d7d9da" d="M 1554.558594 622.972656 C 1592.507812 649.621094 1629.996094 677.359375 1667.007812 706.1875 C 1696.046875 722.878906 1726.035156 737.871094 1756.96875 751.167969 C 1703.425781 758.476562 1649.449219 759.972656 1595.042969 755.664062 C 1581.105469 711.609375 1567.613281 667.382812 1554.558594 622.972656 Z M 1554.558594 622.972656 " fill-opacity="1" fill-rule="evenodd"/><path fill="#ced0d0" d="M 1729.980469 627.472656 C 1733.921875 626.882812 1736.921875 628.382812 1738.976562 631.96875 C 1755.472656 664.953125 1771.960938 697.941406 1788.453125 730.925781 C 1763.351562 726.273438 1738.613281 717.277344 1714.238281 703.9375 C 1717.976562 678.382812 1723.226562 652.898438 1729.980469 627.472656 Z M 1729.980469 627.472656 " fill-opacity="1" fill-rule="evenodd"/><path fill="#f6f9f9" d="M 1514.078125 595.984375 C 1514.746094 600.71875 1514 605.214844 1511.828125 609.480469 C 1475.964844 648.339844 1438.484375 685.824219 1399.378906 721.929688 C 1386.742188 754.5 1375.5 787.484375 1365.644531 820.886719 C 1359.511719 827.089844 1355.015625 826.339844 1352.148438 818.636719 C 1354.171875 812.855469 1357.171875 807.605469 1361.144531 802.894531 C 1357.789062 797.332031 1356.292969 791.332031 1356.648438 784.902344 C 1359.007812 756.457031 1361.257812 727.964844 1363.394531 699.4375 C 1411.796875 662.132812 1462.027344 627.648438 1514.078125 595.984375 Z M 1514.078125 595.984375 " fill-opacity="1" fill-rule="evenodd"/><path fill="#dadcdd" d="M 1514.078125 595.984375 C 1535.488281 649.734375 1553.480469 705.210938 1568.054688 762.410156 C 1567.921875 769.289062 1564.921875 774.539062 1559.058594 778.152344 C 1537.394531 790.128906 1516.40625 802.871094 1496.085938 816.386719 C 1495.585938 813.613281 1494.089844 811.363281 1491.585938 809.640625 C 1513.160156 791.585938 1519.15625 771.34375 1509.578125 748.917969 C 1516.144531 740.085938 1523.644531 731.84375 1532.070312 724.179688 C 1502.300781 717.980469 1472.3125 716.480469 1442.109375 719.679688 C 1425.128906 726.167969 1412.386719 737.410156 1403.875 753.414062 C 1392.707031 804.261719 1364.96875 843.246094 1320.664062 870.363281 C 1319.164062 868.867188 1317.664062 867.363281 1316.164062 865.867188 C 1330.269531 838.527344 1343.765625 811.539062 1356.648438 784.902344 C 1356.292969 791.332031 1357.789062 797.332031 1361.144531 802.894531 C 1357.171875 807.605469 1354.171875 812.855469 1352.148438 818.636719 C 1355.015625 826.339844 1359.511719 827.089844 1365.644531 820.886719 C 1375.5 787.484375 1386.742188 754.5 1399.378906 721.929688 C 1438.484375 685.824219 1475.964844 648.339844 1511.828125 609.480469 C 1514 605.214844 1514.746094 600.71875 1514.078125 595.984375 Z M 1514.078125 595.984375 " fill-opacity="1" fill-rule="evenodd"/><path fill="#e3e9eb" d="M 1451.105469 744.417969 C 1460.222656 743.691406 1469.21875 744.441406 1478.09375 746.667969 C 1468.027344 774.851562 1448.535156 788.347656 1419.617188 787.148438 C 1426.375 769.785156 1436.867188 755.539062 1451.105469 744.417969 Z M 1451.105469 744.417969 " fill-opacity="1" fill-rule="evenodd"/><path fill="#b7bcc0" d="M 1518.574219 479.039062 C 1557.550781 508.269531 1591.285156 542.753906 1619.78125 582.492188 C 1635.886719 613.210938 1653.128906 643.199219 1671.507812 672.453125 C 1670.757812 673.949219 1670.007812 675.453125 1669.257812 676.949219 C 1652.773438 663.90625 1637.03125 650.414062 1622.027344 636.46875 C 1625.96875 637.054688 1628.96875 635.554688 1631.023438 631.96875 C 1604.367188 592.554688 1575.128906 555.070312 1543.3125 519.519531 C 1534.964844 505.773438 1526.722656 492.28125 1518.574219 479.039062 Z M 1518.574219 479.039062 " fill-opacity="1" fill-rule="evenodd"/><path fill="#c2c3c5" d="M 1599.539062 519.519531 C 1601.324219 514.910156 1604.320312 514.160156 1608.535156 517.269531 C 1642.664062 544.644531 1678.648438 569.382812 1716.488281 591.488281 C 1708.683594 614.148438 1700.4375 636.640625 1691.746094 658.957031 C 1675.253906 627.472656 1658.765625 595.984375 1642.269531 564.5 C 1630.144531 547.132812 1615.898438 532.140625 1599.539062 519.519531 Z M 1599.539062 519.519531 " fill-opacity="1" fill-rule="evenodd"/><path fill="#b6b7b8" d="M 1365.644531 515.019531 C 1407.3125 534.359375 1447.792969 556.101562 1487.089844 580.242188 C 1463.738281 596.375 1439.746094 609.871094 1415.121094 620.722656 C 1396.449219 586.414062 1379.957031 551.179688 1365.644531 515.019531 Z M 1365.644531 515.019531 " fill-opacity="1" fill-rule="evenodd"/><path fill="#f2f5f6" d="M 1518.574219 479.039062 C 1526.722656 492.28125 1534.964844 505.773438 1543.3125 519.519531 C 1575.128906 555.070312 1604.367188 592.554688 1631.023438 631.96875 C 1628.96875 635.554688 1625.96875 637.054688 1622.027344 636.46875 C 1591.601562 619.339844 1563.867188 598.351562 1538.816406 573.496094 C 1525.25 536.03125 1513.257812 498.546875 1502.832031 461.046875 C 1507.101562 468.210938 1512.34375 474.207031 1518.574219 479.039062 Z M 1518.574219 479.039062 " fill-opacity="1" fill-rule="evenodd"/><path fill="#f0f3f4" d="M 1658.011719 1275.183594 C 1659.398438 1286.085938 1657.894531 1296.582031 1653.515625 1306.667969 C 1585.566406 1270.4375 1515.101562 1240.453125 1442.109375 1216.710938 C 1414.207031 1211.175781 1394.714844 1196.183594 1383.636719 1171.730469 C 1382.964844 1166.996094 1383.710938 1162.5 1385.882812 1158.234375 C 1474.792969 1201.570312 1565.503906 1240.554688 1658.011719 1275.183594 Z M 1658.011719 1275.183594 " fill-opacity="1" fill-rule="evenodd"/><path fill="#0f151b" d="M 861.867188 1284.179688 C 859.089844 1283.679688 856.84375 1282.183594 855.121094 1279.679688 C 852.878906 1266.269531 852.128906 1252.773438 852.871094 1239.199219 C 856.101562 1231.835938 856.847656 1224.34375 855.121094 1216.710938 C 848.835938 1223.769531 842.089844 1229.773438 834.878906 1234.703125 C 749.488281 1274.394531 665.523438 1316.378906 582.992188 1360.644531 C 578.492188 1360.644531 573.996094 1360.644531 569.496094 1360.644531 C 567.882812 1352.230469 563.382812 1345.484375 556.003906 1340.40625 C 534.289062 1325.417969 513.304688 1309.675781 493.03125 1293.175781 C 474.488281 1278.628906 455 1265.136719 434.558594 1252.691406 C 431.144531 1243.984375 426.644531 1235.742188 421.0625 1227.953125 C 424.75 1219.859375 427.746094 1211.609375 430.058594 1203.214844 C 483.179688 1213.921875 535.652344 1227.414062 587.488281 1243.699219 C 627.976562 1231.699219 666.960938 1215.957031 704.4375 1196.46875 C 664.878906 1142.675781 622.894531 1090.949219 578.492188 1041.289062 C 528.285156 1092.480469 475.808594 1140.460938 421.0625 1185.222656 C 413.671875 1183.828125 409.171875 1179.332031 407.570312 1171.730469 C 418.0625 1159.734375 428.558594 1147.742188 439.054688 1135.746094 C 484.070312 1099.726562 524.554688 1059.242188 560.5 1014.300781 C 531.980469 963.242188 503.492188 912.265625 475.039062 861.367188 C 474.449219 858.042969 475.199219 855.042969 477.289062 852.371094 C 482.4375 857.695312 487.6875 857.695312 493.03125 852.371094 C 499.085938 861.535156 505.085938 870.53125 511.023438 879.359375 C 534.59375 915.972656 557.082031 953.453125 578.492188 991.808594 C 585.695312 979.195312 590.191406 965.703125 591.988281 951.328125 C 598.121094 943.589844 602.621094 934.59375 605.480469 924.339844 C 604.921875 921.609375 603.425781 920.109375 600.984375 919.839844 C 604.285156 914.40625 605.78125 908.410156 605.480469 901.847656 C 609.980469 901.847656 614.476562 901.847656 618.976562 901.847656 C 618.976562 895.851562 618.976562 889.851562 618.976562 883.855469 C 621.636719 872.039062 623.136719 860.042969 623.472656 847.875 C 595.078125 842.796875 566.589844 838.296875 538.011719 834.378906 C 538.011719 829.882812 538.011719 825.382812 538.011719 820.886719 C 569.425781 824.542969 600.910156 827.542969 632.46875 829.882812 C 634.753906 813.253906 637.75 796.757812 641.464844 780.402344 C 584.324219 781.640625 527.351562 780.140625 470.539062 775.90625 C 469.546875 770.351562 466.546875 765.851562 461.542969 762.410156 C 478.792969 755.683594 478.792969 751.183594 461.542969 748.917969 C 461.542969 744.417969 461.542969 739.921875 461.542969 735.421875 C 482.148438 721.378906 504.640625 710.882812 529.015625 703.9375 C 531.941406 701.277344 534.941406 698.285156 538.011719 694.941406 C 551.152344 697.683594 564.648438 699.183594 578.492188 699.4375 C 578.847656 693.007812 577.351562 687.007812 573.996094 681.445312 C 575.550781 676.066406 577.800781 676.066406 580.742188 681.445312 C 582.914062 677.183594 583.660156 672.683594 582.992188 667.953125 C 592.167969 660.410156 601.164062 652.914062 609.980469 645.464844 C 639.257812 622.964844 669.238281 601.222656 699.9375 580.242188 C 709.492188 568.710938 715.492188 555.964844 717.929688 542.007812 C 722.410156 541.625 726.15625 543.121094 729.175781 546.507812 C 730.671875 543.507812 732.175781 540.511719 733.675781 537.511719 C 734.925781 541.628906 737.171875 544.628906 740.421875 546.507812 C 740.691406 548.949219 742.1875 550.449219 744.917969 551.003906 C 802.429688 520.375 860.152344 490.390625 918.09375 461.046875 C 921.09375 467.042969 921.09375 473.039062 918.09375 479.039062 C 896.707031 533.054688 873.46875 586.277344 848.371094 638.714844 C 865.480469 654.46875 884.21875 668.714844 904.597656 681.445312 C 907.75 717.648438 912.25 753.632812 918.09375 789.398438 C 931.445312 815.363281 944.195312 841.597656 956.324219 868.113281 C 939.175781 894.164062 924.933594 921.902344 913.59375 951.328125 C 889.21875 965.175781 865.976562 980.917969 843.875 998.554688 C 835.480469 1002.988281 826.484375 1005.234375 816.886719 1005.304688 C 786.601562 1001.515625 756.617188 997.769531 726.925781 994.058594 C 761.964844 1041.128906 793.453125 1090.609375 821.386719 1142.492188 C 841.84375 1139.914062 861.332031 1133.167969 879.859375 1122.25 C 935.601562 1147.082031 992.578125 1168.824219 1050.78125 1187.472656 C 1057.21875 1189.5625 1062.464844 1193.316406 1066.527344 1198.71875 C 1077.898438 1222.335938 1088.390625 1246.324219 1098.011719 1270.683594 C 1111.664062 1327.484375 1089.925781 1358.972656 1032.789062 1365.144531 C 988.800781 1365.296875 961.0625 1344.304688 949.578125 1302.171875 C 924.664062 1291.8125 899.179688 1282.816406 873.113281 1275.183594 C 867.261719 1275.808594 863.511719 1278.804688 861.867188 1284.179688 Z M 861.867188 1284.179688 " fill-opacity="1" fill-rule="evenodd"/><path fill="#d8dada" d="M 654.957031 991.808594 C 689.449219 1051.800781 723.9375 1111.769531 758.414062 1171.730469 C 749.472656 1181.511719 738.976562 1184.507812 726.925781 1180.726562 C 686.546875 1129.097656 645.316406 1078.121094 603.230469 1027.792969 C 601.058594 1023.527344 600.3125 1019.03125 600.984375 1014.300781 C 619.519531 1008.605469 637.511719 1001.109375 654.957031 991.808594 Z M 654.957031 991.808594 " fill-opacity="1" fill-rule="evenodd"/><path fill="#f7f8f8" d="M 758.414062 1171.730469 C 723.9375 1111.769531 689.449219 1051.800781 654.957031 991.808594 C 664.871094 985.304688 675.367188 981.554688 686.445312 980.5625 C 726.371094 1035.640625 762.351562 1093.371094 794.398438 1153.738281 C 784.917969 1164.472656 772.929688 1170.46875 758.414062 1171.730469 Z M 758.414062 1171.730469 " fill-opacity="1" fill-rule="evenodd"/><path fill="#bdc0c3" d="M 807.890625 933.335938 C 806.023438 944.347656 810.523438 950.34375 821.386719 951.328125 C 834.613281 948.164062 847.359375 943.667969 859.617188 937.832031 C 863.675781 938.925781 867.421875 940.429688 870.863281 942.332031 C 854.167969 955.984375 836.175781 967.980469 816.886719 978.316406 C 784.945312 973.390625 753.460938 966.644531 722.429688 958.074219 C 750.742188 949.125 779.234375 940.875 807.890625 933.335938 Z M 807.890625 933.335938 " fill-opacity="1" fill-rule="evenodd"/><path fill="#caced0" d="M 623.472656 937.832031 C 633.832031 946.042969 644.324219 954.285156 654.957031 962.570312 C 639.125 972.457031 623.382812 982.207031 607.730469 991.808594 C 608.804688 972.820312 614.050781 954.828125 623.472656 937.832031 Z M 623.472656 937.832031 " fill-opacity="1" fill-rule="evenodd"/><path fill="#bec6ca" d="M 722.429688 924.339844 C 728.605469 923.632812 734.605469 924.382812 740.421875 926.589844 C 719.566406 933.789062 698.582031 940.535156 677.449219 946.828125 C 668.199219 944.363281 660.703125 939.121094 654.957031 931.085938 C 678.277344 930.304688 700.765625 928.054688 722.429688 924.339844 Z M 722.429688 924.339844 " fill-opacity="1" fill-rule="evenodd"/><path fill="#dfe1e2" d="M 591.988281 951.328125 C 590.191406 965.703125 585.695312 979.195312 578.492188 991.808594 C 557.082031 953.453125 534.59375 915.972656 511.023438 879.359375 C 512.808594 874.75 515.804688 873.996094 520.019531 877.109375 C 535.011719 892.101562 550.007812 907.097656 565 922.089844 C 580.003906 927.132812 589 936.875 591.988281 951.328125 Z M 591.988281 951.328125 " fill-opacity="1" fill-rule="evenodd"/><path fill="#d7dada" d="M 848.371094 883.855469 C 852.773438 885.257812 855.773438 888.257812 857.367188 892.851562 C 855.507812 903.734375 851.007812 912.730469 843.875 919.839844 C 838.503906 914.097656 831.011719 911.097656 821.386719 910.84375 C 765.96875 913.765625 710.492188 918.261719 654.957031 924.339844 C 643.78125 925.511719 636.285156 921.015625 632.46875 910.84375 C 635.359375 895.625 639.113281 880.632812 643.714844 865.867188 C 646.046875 861.296875 649.800781 858.300781 654.957031 856.871094 C 696.960938 868.117188 738.945312 879.363281 780.902344 890.605469 C 800.394531 893.605469 819.886719 893.605469 839.375 890.605469 C 843.496094 889.355469 846.492188 887.105469 848.371094 883.855469 Z M 848.371094 883.855469 " fill-opacity="1" fill-rule="evenodd"/><path fill="#d3d7da" d="M 659.457031 793.898438 C 702.074219 817.457031 744.054688 842.195312 785.402344 868.113281 C 740.761719 858.464844 695.78125 848.71875 650.460938 838.878906 C 654.390625 824.082031 657.390625 809.085938 659.457031 793.898438 Z M 659.457031 793.898438 " fill-opacity="1" fill-rule="evenodd"/><path fill="#f0f3f3" d="M 780.902344 807.390625 C 803.265625 809.980469 824.257812 816.730469 843.875 827.632812 C 861.773438 853.015625 881.261719 877.003906 902.347656 899.601562 C 899.429688 919.996094 888.9375 934.238281 870.863281 942.332031 C 867.421875 940.429688 863.675781 938.925781 859.617188 937.832031 C 847.359375 943.667969 834.613281 948.164062 821.386719 951.328125 C 810.523438 950.34375 806.023438 944.347656 807.890625 933.335938 C 819.5 928.890625 831.496094 924.394531 843.875 919.839844 C 851.007812 912.730469 855.507812 903.734375 857.367188 892.851562 C 855.773438 888.257812 852.773438 885.257812 848.371094 883.855469 C 830.273438 870.222656 812.28125 856.730469 794.398438 843.375 C 785.375 830.535156 773.382812 820.789062 758.414062 814.136719 C 764.734375 808.429688 772.226562 806.179688 780.902344 807.390625 Z M 780.902344 807.390625 " fill-opacity="1" fill-rule="evenodd"/><path fill="#dadcdb" d="M 578.492188 699.4375 C 617.757812 676.378906 654.492188 649.390625 688.695312 618.476562 C 678.324219 665.125 664.085938 710.855469 645.960938 755.664062 C 590.425781 759.410156 534.953125 758.660156 479.535156 753.414062 C 506.671875 741.113281 533.660156 728.371094 560.5 715.183594 C 567.667969 710.914062 573.660156 705.667969 578.492188 699.4375 Z M 578.492188 699.4375 " fill-opacity="1" fill-rule="evenodd"/><path fill="#dcdedf" d="M 722.429688 613.976562 C 727.160156 613.304688 731.660156 614.054688 735.921875 616.226562 C 765.160156 651.460938 797.398438 683.695312 832.628906 712.933594 C 850.546875 741.671875 860.289062 773.15625 861.867188 807.390625 C 849.648438 781.46875 836.15625 755.980469 821.386719 730.925781 C 804.449219 720.007812 785.707031 715.511719 765.160156 717.429688 C 747.164062 716.769531 729.921875 719.769531 713.433594 726.425781 C 732.839844 744.25 747.832031 765.242188 758.414062 789.398438 C 766.105469 795.636719 773.601562 801.636719 780.902344 807.390625 C 772.226562 806.179688 764.734375 808.429688 758.414062 814.136719 C 773.382812 820.789062 785.375 830.535156 794.398438 843.375 C 757.914062 822.867188 721.929688 801.125 686.445312 778.152344 C 678.730469 774.660156 674.234375 768.664062 672.949219 760.164062 C 687.347656 710.222656 703.839844 661.492188 722.429688 613.976562 Z M 722.429688 613.976562 " fill-opacity="1" fill-rule="evenodd"/><path fill="#dadee1" d="M 767.410156 744.417969 C 795.300781 743.730469 813.292969 757.226562 821.386719 784.902344 C 810.597656 790.40625 800.105469 789.660156 789.898438 782.652344 C 775.453125 773.570312 767.957031 760.824219 767.410156 744.417969 Z M 767.410156 744.417969 " fill-opacity="1" fill-rule="evenodd"/><path fill="#f2f5f6" d="M 861.867188 807.390625 C 860.289062 773.15625 850.546875 741.671875 832.628906 712.933594 C 797.398438 683.695312 765.160156 651.460938 735.921875 616.226562 C 731.660156 614.054688 727.160156 613.304688 722.429688 613.976562 C 721.582031 606.765625 723.832031 600.769531 729.175781 595.984375 C 778.652344 630.46875 828.132812 664.953125 877.609375 699.4375 C 874.6875 757.476562 888.929688 810.703125 920.339844 859.117188 C 918.84375 861.367188 917.339844 863.617188 915.84375 865.867188 C 892.710938 851.0625 874.71875 831.566406 861.867188 807.390625 Z M 861.867188 807.390625 " fill-opacity="1" fill-rule="evenodd"/><path fill="#b1b4b6" d="M 843.875 533.011719 C 844.464844 536.335938 843.714844 539.335938 841.625 542.007812 C 823.785156 555.339844 807.292969 570.335938 792.148438 586.988281 C 789.148438 589.988281 789.148438 592.988281 792.148438 595.984375 C 816.199219 578.636719 839.441406 560.644531 861.867188 542.007812 C 853.101562 571.542969 839.605469 598.527344 821.386719 622.972656 C 800.367188 609.441406 779.378906 595.945312 758.414062 582.492188 C 783.304688 560.28125 811.796875 543.789062 843.875 533.011719 Z M 843.875 533.011719 " fill-opacity="1" fill-rule="evenodd"/><path fill="#e7eae9" d="M 861.867188 542.007812 C 839.441406 560.644531 816.199219 578.636719 792.148438 595.984375 C 789.148438 592.988281 789.148438 589.988281 792.148438 586.988281 C 807.292969 570.335938 823.785156 555.339844 841.625 542.007812 C 843.714844 539.335938 844.464844 536.335938 843.875 533.011719 C 867.652344 511.96875 873.652344 514.96875 861.867188 542.007812 Z M 861.867188 542.007812 " fill-opacity="1" fill-rule="evenodd"/><path fill="#ecf0f1" d="M 893.351562 1158.234375 C 942.339844 1180.816406 992.566406 1200.304688 1044.035156 1216.710938 C 1057.558594 1240.691406 1065.800781 1266.179688 1068.773438 1293.175781 C 1072.273438 1315.421875 1063.277344 1327.417969 1041.785156 1329.160156 C 1043.0625 1296.261719 1035.566406 1265.527344 1019.296875 1236.949219 C 975.824219 1222.210938 932.339844 1207.964844 888.855469 1194.21875 C 887.859375 1181.71875 889.359375 1169.722656 893.351562 1158.234375 Z M 893.351562 1158.234375 " fill-opacity="1" fill-rule="evenodd"/><path fill="#eff4f5" d="M 785.402344 1225.707031 C 719.890625 1248.335938 656.167969 1275.324219 594.234375 1306.667969 C 592 1296.277344 591.253906 1285.785156 591.988281 1275.183594 C 680.363281 1238.691406 768.820312 1201.203125 857.367188 1162.734375 C 863.203125 1174.824219 861.703125 1186.070312 852.871094 1196.46875 C 830.285156 1206.269531 807.796875 1216.015625 785.402344 1225.707031 Z M 785.402344 1225.707031 " fill-opacity="1" fill-rule="evenodd"/><path fill="#e9eeef" d="M 1356.648438 1171.730469 C 1356.648438 1177.726562 1356.648438 1183.726562 1356.648438 1189.722656 C 1325.402344 1197.902344 1295.421875 1208.402344 1266.6875 1221.207031 C 1249.023438 1225.84375 1231.777344 1231.84375 1214.960938 1239.199219 C 1200.289062 1267.460938 1193.539062 1297.449219 1194.71875 1329.160156 C 1171.996094 1325.867188 1161.5 1312.371094 1163.234375 1288.675781 C 1167.796875 1262.988281 1176.792969 1238.996094 1190.222656 1216.710938 C 1243.066406 1198.097656 1295.546875 1178.601562 1347.652344 1158.234375 C 1354.035156 1160.507812 1357.027344 1165.003906 1356.648438 1171.730469 Z M 1356.648438 1171.730469 " fill-opacity="1" fill-rule="evenodd"/><path fill="#aeb4b8" d="M 884.355469 1221.207031 C 921.785156 1233.179688 959.265625 1245.175781 996.808594 1257.191406 C 1012.675781 1279.230469 1017.175781 1303.222656 1010.300781 1329.160156 C 985.792969 1317.566406 975.292969 1298.824219 978.816406 1272.933594 C 947.757812 1268.917969 917.769531 1260.667969 888.855469 1248.195312 C 884.511719 1239.667969 883.011719 1230.671875 884.355469 1221.207031 Z M 884.355469 1221.207031 " fill-opacity="1" fill-rule="evenodd"/><path fill="#b4b7b9" d="M 1356.648438 1248.195312 C 1325.769531 1257.789062 1294.28125 1265.285156 1262.1875 1270.683594 C 1260.777344 1286.191406 1257.023438 1301.183594 1250.945312 1315.664062 C 1243.144531 1324.441406 1233.398438 1328.9375 1221.707031 1329.160156 C 1220.96875 1317.074219 1221.71875 1305.078125 1223.957031 1293.175781 C 1229.433594 1261.449219 1248.179688 1244.957031 1280.179688 1243.699219 C 1307.964844 1232.628906 1336.449219 1223.632812 1365.644531 1216.710938 C 1367.058594 1228.902344 1364.058594 1239.398438 1356.648438 1248.195312 Z M 1356.648438 1248.195312 " fill-opacity="1" fill-rule="evenodd"/><path fill="#c5c9cc" d="M 785.402344 1225.707031 C 718.90625 1261.203125 651.4375 1295.691406 582.992188 1329.160156 C 542.59375 1296.96875 500.609375 1266.980469 457.046875 1239.199219 C 451.050781 1236.199219 451.050781 1233.203125 457.046875 1230.203125 C 500.90625 1247.929688 545.886719 1262.925781 591.988281 1275.183594 C 591.253906 1285.785156 592 1296.277344 594.234375 1306.667969 C 656.167969 1275.324219 719.890625 1248.335938 785.402344 1225.707031 Z M 785.402344 1225.707031 " fill-opacity="1" fill-rule="evenodd"/><path fill="#e3e7e7" d="M 834.878906 1234.703125 C 845.796875 1238.207031 845.796875 1243.453125 834.878906 1250.445312 C 753.53125 1303.5 670.320312 1353.726562 585.238281 1401.128906 C 583 1387.714844 582.25 1374.21875 582.992188 1360.644531 C 665.523438 1316.378906 749.488281 1274.394531 834.878906 1234.703125 Z M 834.878906 1234.703125 " fill-opacity="1" fill-rule="evenodd"/><path fill="#9c9fa5" d="M 1352.148438 1315.664062 C 1359.777344 1316.496094 1365.773438 1320.25 1370.140625 1326.910156 C 1206.4375 1471.949219 1041.507812 1473.445312 875.359375 1331.410156 C 879.203125 1326.8125 883.699219 1323.066406 888.855469 1320.164062 C 1044.902344 1453.304688 1199.332031 1451.804688 1352.148438 1315.664062 Z M 1352.148438 1315.664062 " fill-opacity="1" fill-rule="evenodd"/><path fill="#aab0b3" d="M 434.558594 1252.691406 C 455 1265.136719 474.488281 1278.628906 493.03125 1293.175781 C 487.746094 1292.191406 483.246094 1293.6875 479.535156 1297.671875 C 497.28125 1322.179688 517.523438 1344.667969 540.261719 1365.144531 C 539.652344 1380.605469 544.902344 1393.355469 556.003906 1403.375 C 553.503906 1405.097656 552.003906 1407.347656 551.503906 1410.125 C 512.550781 1357.671875 473.574219 1305.195312 434.558594 1252.691406 Z M 434.558594 1252.691406 " fill-opacity="1" fill-rule="evenodd"/><path fill="#b0b3b5" d="M 1415.121094 1234.703125 C 1406.667969 1234.21875 1405.171875 1236.46875 1410.621094 1241.449219 C 1491.273438 1297.332031 1573.734375 1350.5625 1658.011719 1401.128906 C 1662.453125 1386.429688 1663.949219 1371.429688 1662.511719 1356.148438 C 1665.511719 1356.148438 1667.007812 1357.644531 1667.007812 1360.644531 C 1667.007812 1387.632812 1667.007812 1414.621094 1667.007812 1441.609375 C 1667.300781 1443.578125 1666.554688 1445.082031 1664.761719 1446.105469 C 1594.335938 1397.390625 1524.617188 1347.910156 1455.601562 1297.671875 C 1435.917969 1282.847656 1417.179688 1266.355469 1399.378906 1248.195312 C 1397.289062 1245.523438 1396.539062 1242.523438 1397.128906 1239.199219 C 1398.789062 1223.398438 1404.785156 1221.894531 1415.121094 1234.703125 Z M 1415.121094 1234.703125 " fill-opacity="1" fill-rule="evenodd"/><path fill="#d1d5d5" d="M 493.03125 1293.175781 C 513.304688 1309.675781 534.289062 1325.417969 556.003906 1340.40625 C 563.382812 1345.484375 567.882812 1352.230469 569.496094 1360.644531 C 570.238281 1375.714844 569.488281 1390.707031 567.246094 1405.625 C 563.578125 1411.578125 558.328125 1414.570312 551.503906 1414.621094 C 551.503906 1413.125 551.503906 1411.621094 551.503906 1410.125 C 552.003906 1407.347656 553.503906 1405.097656 556.003906 1403.375 C 544.902344 1393.355469 539.652344 1380.605469 540.261719 1365.144531 C 517.523438 1344.667969 497.28125 1322.179688 479.535156 1297.671875 C 483.246094 1293.6875 487.746094 1292.191406 493.03125 1293.175781 Z M 493.03125 1293.175781 " fill-opacity="1" fill-rule="evenodd"/><path fill="#d2d5d3" d="M 821.386719 1311.167969 C 814.007812 1359.960938 803.515625 1409.441406 789.898438 1459.601562 C 752.515625 1448.402344 716.53125 1434.15625 681.945312 1416.871094 C 729.257812 1382.25 775.734375 1347.015625 821.386719 1311.167969 Z M 821.386719 1311.167969 " fill-opacity="1" fill-rule="evenodd"/><path fill="#dee2e2" d="M 1415.121094 1234.703125 C 1496.890625 1276.335938 1579.355469 1316.816406 1662.511719 1356.148438 C 1663.949219 1371.429688 1662.453125 1386.429688 1658.011719 1401.128906 C 1573.734375 1350.5625 1491.273438 1297.332031 1410.621094 1241.449219 C 1405.171875 1236.46875 1406.667969 1234.21875 1415.121094 1234.703125 Z M 1415.121094 1234.703125 " fill-opacity="1" fill-rule="evenodd"/><path fill="#12161c" d="M 389.578125 1356.148438 C 419.886719 1430.289062 462.621094 1496.261719 517.769531 1554.058594 C 526.734375 1564.484375 531.980469 1576.476562 533.511719 1590.042969 C 529.015625 1590.042969 524.515625 1590.042969 520.019531 1590.042969 C 339.832031 1398.753906 282.109375 1176.847656 346.847656 924.339844 C 350.316406 924.992188 353.316406 926.488281 355.84375 928.835938 C 332.195312 1052.121094 335.191406 1175.070312 364.835938 1297.671875 C 373.152344 1317.28125 381.398438 1336.769531 389.578125 1356.148438 Z M 389.578125 1356.148438 " fill-opacity="1" fill-rule="evenodd"/><path fill="#aeb2b3" d="M 852.871094 1239.199219 C 840.570312 1259.765625 824.074219 1277.003906 803.394531 1290.925781 C 731.5 1344.867188 658.035156 1396.59375 582.992188 1446.105469 C 579.28125 1429.816406 577.03125 1413.320312 576.242188 1396.628906 C 572.984375 1407.644531 568.484375 1418.144531 562.75 1428.117188 C 558.050781 1424.1875 554.300781 1419.691406 551.503906 1414.621094 C 558.328125 1414.570312 563.578125 1411.578125 567.246094 1405.625 C 569.488281 1390.707031 570.238281 1375.714844 569.496094 1360.644531 C 573.996094 1360.644531 578.492188 1360.644531 582.992188 1360.644531 C 582.25 1374.21875 583 1387.714844 585.238281 1401.128906 C 670.320312 1353.726562 753.53125 1303.5 834.878906 1250.445312 C 845.796875 1243.453125 845.796875 1238.207031 834.878906 1234.703125 C 842.089844 1229.773438 848.835938 1223.769531 855.121094 1216.710938 C 856.847656 1224.34375 856.101562 1231.835938 852.871094 1239.199219 Z M 852.871094 1239.199219 " fill-opacity="1" fill-rule="evenodd"/><path fill="#9da0a6" d="M 852.871094 1387.632812 C 897.878906 1419.757812 945.859375 1447.496094 996.808594 1470.847656 C 1099.058594 1508.910156 1198.015625 1501.410156 1293.675781 1448.355469 C 1324.4375 1429.230469 1354.425781 1408.988281 1383.636719 1387.632812 C 1388.789062 1390.535156 1393.289062 1394.28125 1397.128906 1398.878906 C 1224.589844 1544.578125 1047.664062 1550.574219 866.363281 1416.871094 C 853.4375 1409.664062 848.941406 1399.917969 852.871094 1387.632812 Z M 852.871094 1387.632812 " fill-opacity="1" fill-rule="evenodd"/><path fill="#d2d5d6" d="M 1451.105469 1329.160156 C 1493.085938 1360.644531 1535.070312 1392.132812 1577.050781 1423.617188 C 1562.058594 1426.617188 1547.0625 1429.613281 1532.070312 1432.613281 C 1506.128906 1437.25 1482.136719 1446.246094 1460.101562 1459.601562 C 1454.734375 1457.488281 1451.734375 1452.988281 1451.105469 1446.105469 C 1441.570312 1399.152344 1431.820312 1352.675781 1421.867188 1306.667969 C 1430.53125 1315.839844 1440.277344 1323.339844 1451.105469 1329.160156 Z M 1451.105469 1329.160156 " fill-opacity="1" fill-rule="evenodd"/><path fill="#0f181e" d="M 1864.921875 1144.742188 C 1870.097656 1167.90625 1870.84375 1191.898438 1867.171875 1216.710938 C 1843.421875 1300.203125 1807.4375 1378.164062 1759.21875 1450.605469 C 1736.589844 1478.480469 1711.847656 1503.96875 1685 1527.070312 C 1586.503906 1570.152344 1486.050781 1608.386719 1383.636719 1641.769531 C 1368.945312 1664.8125 1357.699219 1689.550781 1349.898438 1715.988281 C 1332.332031 1730.863281 1312.089844 1740.609375 1289.175781 1745.222656 C 1250.214844 1753.863281 1223.976562 1739.621094 1210.460938 1702.492188 C 1205.625 1683.285156 1203.378906 1663.796875 1203.714844 1644.019531 C 1219.890625 1603.429688 1242.378906 1566.695312 1271.183594 1533.816406 C 1323.972656 1512.484375 1376.453125 1490.746094 1428.613281 1468.597656 C 1439.582031 1470.007812 1450.074219 1467.015625 1460.101562 1459.601562 C 1482.136719 1446.246094 1506.128906 1437.25 1532.070312 1432.613281 C 1548.5625 1432.613281 1565.054688 1432.613281 1581.546875 1432.613281 C 1581.425781 1440.253906 1578.425781 1446.253906 1572.550781 1450.605469 C 1541.160156 1460.28125 1509.671875 1470.027344 1478.09375 1479.84375 C 1417.078125 1505.109375 1355.601562 1529.09375 1293.675781 1551.808594 C 1272.054688 1580.816406 1253.308594 1611.558594 1237.449219 1644.019531 C 1234.320312 1663.832031 1235.816406 1683.328125 1241.949219 1702.492188 C 1247.632812 1711.96875 1255.878906 1716.46875 1266.6875 1715.988281 C 1264.527344 1692.050781 1263.03125 1668.0625 1262.1875 1644.019531 C 1270.691406 1644.933594 1277.4375 1641.9375 1282.429688 1635.023438 C 1295.871094 1615.644531 1305.617188 1594.652344 1311.667969 1572.050781 C 1329.78125 1569.175781 1347.773438 1565.429688 1365.644531 1560.804688 C 1448.246094 1528.484375 1530.710938 1496.246094 1613.03125 1464.097656 C 1619.90625 1464.023438 1622.15625 1461.023438 1619.78125 1455.101562 C 1606.089844 1443.628906 1591.84375 1433.136719 1577.050781 1423.617188 C 1535.070312 1392.132812 1493.085938 1360.644531 1451.105469 1329.160156 C 1451.492188 1324.679688 1449.988281 1320.933594 1446.605469 1317.914062 C 1453.835938 1313.195312 1456.832031 1306.449219 1455.601562 1297.671875 C 1524.617188 1347.910156 1594.335938 1397.390625 1664.761719 1446.105469 C 1666.554688 1445.082031 1667.300781 1443.578125 1667.007812 1441.609375 C 1673.003906 1435.613281 1679.003906 1429.613281 1685 1423.617188 C 1705.992188 1393.628906 1726.980469 1363.644531 1747.972656 1333.65625 C 1750.972656 1333.65625 1752.472656 1332.160156 1752.472656 1329.160156 C 1772.578125 1305.261719 1792.066406 1280.523438 1810.945312 1254.941406 C 1794.210938 1261.117188 1779.21875 1270.863281 1765.964844 1284.179688 C 1734.847656 1303.464844 1706.363281 1325.957031 1680.503906 1351.648438 C 1677.253906 1356.375 1672.757812 1359.375 1667.007812 1360.644531 C 1667.007812 1357.644531 1665.511719 1356.148438 1662.511719 1356.148438 C 1579.355469 1316.816406 1496.890625 1276.335938 1415.121094 1234.703125 C 1404.785156 1221.894531 1398.789062 1223.398438 1397.128906 1239.199219 C 1394.15625 1233.722656 1391.15625 1227.726562 1388.132812 1221.207031 C 1380.441406 1231.140625 1373.695312 1241.632812 1367.890625 1252.691406 C 1364.875 1249.3125 1361.128906 1247.808594 1356.648438 1248.195312 C 1364.058594 1239.398438 1367.058594 1228.902344 1365.644531 1216.710938 C 1336.449219 1223.632812 1307.964844 1232.628906 1280.179688 1243.699219 C 1283.996094 1235.546875 1283.996094 1228.800781 1280.179688 1223.457031 C 1275.917969 1221.285156 1271.417969 1220.535156 1266.6875 1221.207031 C 1295.421875 1208.402344 1325.402344 1197.902344 1356.648438 1189.722656 C 1356.648438 1183.726562 1356.648438 1177.726562 1356.648438 1171.730469 C 1367.050781 1167.71875 1368.554688 1171.46875 1361.144531 1182.972656 C 1363.140625 1190.898438 1365.390625 1190.148438 1367.890625 1180.726562 C 1370.097656 1186.542969 1370.847656 1192.542969 1370.140625 1198.71875 C 1377.378906 1200.542969 1383.378906 1200.542969 1388.132812 1198.71875 C 1378.078125 1191.269531 1376.582031 1182.273438 1383.636719 1171.730469 C 1394.714844 1196.183594 1414.207031 1211.175781 1442.109375 1216.710938 C 1514.273438 1253.164062 1586.992188 1289.148438 1660.261719 1324.660156 C 1690.109375 1311.355469 1716.351562 1292.613281 1738.976562 1268.4375 C 1756.96875 1256.441406 1774.960938 1244.449219 1792.953125 1232.453125 C 1755.976562 1239.652344 1719.992188 1250.898438 1685 1266.1875 C 1683.824219 1259.539062 1685.320312 1253.542969 1689.5 1248.195312 C 1692.136719 1249.136719 1694.382812 1250.636719 1696.246094 1252.691406 C 1703.382812 1244.332031 1701.136719 1238.332031 1689.5 1234.703125 C 1730.8125 1219.710938 1773.542969 1207.714844 1817.691406 1198.71875 C 1822.324219 1197.207031 1824.574219 1194.207031 1824.4375 1189.722656 C 1829.386719 1184.960938 1835.386719 1181.210938 1842.429688 1178.476562 C 1839.929688 1176.753906 1838.433594 1174.503906 1837.933594 1171.730469 C 1841.703125 1170.191406 1843.203125 1167.195312 1842.429688 1162.734375 C 1850.207031 1165.507812 1856.957031 1170.007812 1862.671875 1176.226562 C 1864.90625 1165.835938 1865.652344 1155.34375 1864.921875 1144.742188 Z M 1864.921875 1144.742188 " fill-opacity="1" fill-rule="evenodd"/><path fill="#576164" d="M 1680.503906 1351.648438 C 1680.503906 1359.148438 1680.503906 1366.640625 1680.503906 1374.140625 C 1679.085938 1391.550781 1680.585938 1408.046875 1685 1423.617188 C 1679.003906 1429.613281 1673.003906 1435.613281 1667.007812 1441.609375 C 1667.007812 1414.621094 1667.007812 1387.632812 1667.007812 1360.644531 C 1672.757812 1359.375 1677.253906 1356.375 1680.503906 1351.648438 Z M 1680.503906 1351.648438 " fill-opacity="1" fill-rule="evenodd"/><path fill="#b2b7b7" d="M 1747.972656 1333.65625 C 1726.980469 1363.644531 1705.992188 1393.628906 1685 1423.617188 C 1680.585938 1408.046875 1679.085938 1391.550781 1680.503906 1374.140625 C 1689.417969 1371.914062 1698.414062 1369.664062 1707.492188 1367.390625 C 1719.191406 1353.394531 1732.683594 1342.148438 1747.972656 1333.65625 Z M 1747.972656 1333.65625 " fill-opacity="1" fill-rule="evenodd"/><path fill="#d5d9d8" d="M 1765.964844 1284.179688 C 1769.90625 1283.589844 1772.90625 1285.089844 1774.960938 1288.675781 C 1763.933594 1300.242188 1756.433594 1313.734375 1752.472656 1329.160156 C 1752.472656 1332.160156 1750.972656 1333.65625 1747.972656 1333.65625 C 1732.683594 1342.148438 1719.191406 1353.394531 1707.492188 1367.390625 C 1698.414062 1369.664062 1689.417969 1371.914062 1680.503906 1374.140625 C 1680.503906 1366.640625 1680.503906 1359.148438 1680.503906 1351.648438 C 1706.363281 1325.957031 1734.847656 1303.464844 1765.964844 1284.179688 Z M 1765.964844 1284.179688 " fill-opacity="1" fill-rule="evenodd"/><path fill="#c8cccd" d="M 1442.109375 1216.710938 C 1515.101562 1240.453125 1585.566406 1270.4375 1653.515625 1306.667969 C 1657.894531 1296.582031 1659.398438 1286.085938 1658.011719 1275.183594 C 1666.175781 1270.101562 1675.171875 1267.105469 1685 1266.1875 C 1719.992188 1250.898438 1755.976562 1239.652344 1792.953125 1232.453125 C 1774.960938 1244.449219 1756.96875 1256.441406 1738.976562 1268.4375 C 1716.351562 1292.613281 1690.109375 1311.355469 1660.261719 1324.660156 C 1586.992188 1289.148438 1514.273438 1253.164062 1442.109375 1216.710938 Z M 1442.109375 1216.710938 " fill-opacity="1" fill-rule="evenodd"/><path fill="#acb3b6" d="M 1752.472656 1329.160156 C 1756.433594 1313.734375 1763.933594 1300.242188 1774.960938 1288.675781 C 1772.90625 1285.089844 1769.90625 1283.589844 1765.964844 1284.179688 C 1779.21875 1270.863281 1794.210938 1261.117188 1810.945312 1254.941406 C 1792.066406 1280.523438 1772.578125 1305.261719 1752.472656 1329.160156 Z M 1752.472656 1329.160156 " fill-opacity="1" fill-rule="evenodd"/><path fill="#a3a8ae" d="M 1671.507812 1500.082031 C 1671.25 1495.09375 1669.753906 1490.597656 1667.007812 1486.589844 C 1675.425781 1484.972656 1682.171875 1480.476562 1687.25 1473.09375 C 1720.234375 1428.117188 1753.222656 1383.136719 1786.207031 1338.15625 C 1764.6875 1403.582031 1726.453125 1457.558594 1671.507812 1500.082031 Z M 1671.507812 1500.082031 " fill-opacity="1" fill-rule="evenodd"/><path fill="#687179" d="M 1577.050781 1423.617188 C 1591.84375 1433.136719 1606.089844 1443.628906 1619.78125 1455.101562 C 1622.15625 1461.023438 1619.90625 1464.023438 1613.03125 1464.097656 C 1612.6875 1458.476562 1609.6875 1454.730469 1604.035156 1452.855469 C 1593.648438 1450.617188 1583.152344 1449.871094 1572.550781 1450.605469 C 1578.425781 1446.253906 1581.425781 1440.253906 1581.546875 1432.613281 C 1565.054688 1432.613281 1548.5625 1432.613281 1532.070312 1432.613281 C 1547.0625 1429.613281 1562.058594 1426.617188 1577.050781 1423.617188 Z M 1577.050781 1423.617188 " fill-opacity="1" fill-rule="evenodd"/><path fill="#ebeff0" d="M 1572.550781 1450.605469 C 1583.152344 1449.871094 1593.648438 1450.617188 1604.035156 1452.855469 C 1609.6875 1454.730469 1612.6875 1458.476562 1613.03125 1464.097656 C 1530.710938 1496.246094 1448.246094 1528.484375 1365.644531 1560.804688 C 1347.773438 1565.429688 1329.78125 1569.175781 1311.667969 1572.050781 C 1305.617188 1594.652344 1295.871094 1615.644531 1282.429688 1635.023438 C 1277.4375 1641.9375 1270.691406 1644.933594 1262.1875 1644.019531 C 1263.03125 1668.0625 1264.527344 1692.050781 1266.6875 1715.988281 C 1255.878906 1716.46875 1247.632812 1711.96875 1241.949219 1702.492188 C 1235.816406 1683.328125 1234.320312 1663.832031 1237.449219 1644.019531 C 1253.308594 1611.558594 1272.054688 1580.816406 1293.675781 1551.808594 C 1355.601562 1529.09375 1417.078125 1505.109375 1478.09375 1479.84375 C 1509.671875 1470.027344 1541.160156 1460.28125 1572.550781 1450.605469 Z M 1572.550781 1450.605469 " fill-opacity="1" fill-rule="evenodd"/><path fill="#11151a" d="M 1887.410156 924.339844 C 1894.804688 923.375 1901.554688 924.878906 1907.652344 928.835938 C 1963.867188 1180.863281 1903.894531 1399.769531 1727.730469 1585.546875 C 1721.253906 1579.113281 1719.753906 1571.613281 1723.234375 1563.054688 C 1887.285156 1383.417969 1940.515625 1175.011719 1882.914062 937.832031 C 1883.746094 932.957031 1885.242188 928.460938 1887.410156 924.339844 Z M 1887.410156 924.339844 " fill-opacity="1" fill-rule="evenodd"/><path fill="#9ba1a4" d="M 569.496094 1491.085938 C 569.496094 1492.585938 569.496094 1494.085938 569.496094 1495.585938 C 550.347656 1483.210938 533.109375 1468.21875 517.769531 1450.605469 C 494.109375 1416.808594 473.871094 1380.824219 457.046875 1342.652344 C 497.808594 1386.839844 535.289062 1436.320312 569.496094 1491.085938 Z M 569.496094 1491.085938 " fill-opacity="1" fill-rule="evenodd"/><path fill="#b8bcc0" d="M 569.496094 1495.585938 C 569.496094 1494.085938 569.496094 1492.585938 569.496094 1491.085938 C 578.421875 1488.136719 587.417969 1485.140625 596.484375 1482.089844 C 605.480469 1484.339844 614.476562 1486.589844 623.472656 1488.839844 C 713.132812 1524.21875 803.089844 1558.707031 893.351562 1592.292969 C 872.933594 1609.433594 850.441406 1612.433594 825.882812 1601.289062 C 739.425781 1567.257812 653.964844 1532.019531 569.496094 1495.585938 Z M 569.496094 1495.585938 " fill-opacity="1" fill-rule="evenodd"/><path fill="#e9ecee" d="M 645.960938 1437.113281 C 745.710938 1473.375 844.667969 1512.359375 942.832031 1554.058594 C 962.769531 1582.308594 980.011719 1612.289062 994.558594 1644.019531 C 998.511719 1665.550781 997.007812 1686.539062 990.058594 1706.992188 C 980.15625 1717.070312 968.910156 1720.070312 956.324219 1715.988281 C 961.96875 1692.816406 966.46875 1669.582031 969.820312 1646.269531 C 961.59375 1645.039062 954.84375 1641.289062 949.578125 1635.023438 C 937.761719 1615.148438 926.515625 1594.90625 915.84375 1574.300781 C 817.359375 1537.972656 719.90625 1498.992188 623.472656 1457.351562 C 633 1452.632812 640.492188 1445.886719 645.960938 1437.113281 Z M 645.960938 1437.113281 " fill-opacity="1" fill-rule="evenodd"/><path fill="#bbbdbe" d="M 1667.007812 1486.589844 C 1669.753906 1490.597656 1671.25 1495.09375 1671.507812 1500.082031 C 1576.558594 1539.558594 1480.601562 1576.292969 1383.636719 1610.285156 C 1368.207031 1612.347656 1354.714844 1607.851562 1343.152344 1596.789062 C 1440.980469 1559.132812 1538.4375 1520.152344 1635.523438 1479.84375 C 1647.539062 1476.09375 1658.03125 1478.34375 1667.007812 1486.589844 Z M 1667.007812 1486.589844 " fill-opacity="1" fill-rule="evenodd"/><path fill="#9ea1a7" d="M 992.308594 1545.0625 C 1076.328125 1543.566406 1160.285156 1545.0625 1244.195312 1549.5625 C 1231.613281 1556.167969 1218.117188 1559.914062 1203.714844 1560.804688 C 1136.109375 1564.546875 1068.640625 1563.050781 1001.304688 1556.308594 C 995.65625 1554.433594 992.65625 1550.6875 992.308594 1545.0625 Z M 992.308594 1545.0625 " fill-opacity="1" fill-rule="evenodd"/><path fill="#9a9da3" d="M 1181.226562 1581.046875 C 1192.128906 1579.660156 1202.621094 1581.164062 1212.710938 1585.546875 C 1208.75 1592.160156 1202.753906 1595.910156 1194.71875 1596.789062 C 1139.246094 1599.789062 1083.765625 1599.789062 1028.292969 1596.789062 C 1023.019531 1594.90625 1018.523438 1591.910156 1014.800781 1587.792969 C 1071.054688 1587.035156 1126.527344 1584.785156 1181.226562 1581.046875 Z M 1181.226562 1581.046875 " fill-opacity="1" fill-rule="evenodd"/><path fill="#9b9ea4" d="M 1140.742188 1626.027344 C 1156.703125 1624.207031 1171.695312 1626.453125 1185.722656 1632.773438 C 1180.671875 1637.46875 1174.675781 1640.464844 1167.730469 1641.769531 C 1133.246094 1644.769531 1098.761719 1644.769531 1064.277344 1641.769531 C 1057.808594 1640.785156 1051.8125 1638.535156 1046.285156 1635.023438 C 1078.46875 1632.023438 1109.953125 1629.027344 1140.742188 1626.027344 Z M 1140.742188 1626.027344 " fill-opacity="1" fill-rule="evenodd"/><path fill="#111418" d="M 609.980469 1608.035156 C 672.085938 1666.1875 744.054688 1708.917969 825.882812 1736.226562 C 833.035156 1747.382812 830.785156 1755.628906 819.136719 1760.96875 C 721.019531 1722.851562 634.808594 1667.378906 560.5 1594.542969 C 553.390625 1587.15625 550.394531 1578.160156 551.503906 1567.554688 C 556.238281 1566.882812 560.734375 1567.628906 565 1569.800781 C 578.097656 1585.179688 593.09375 1597.925781 609.980469 1608.035156 Z M 609.980469 1608.035156 " fill-opacity="1" fill-rule="evenodd"/><path fill="#b8bbbd" d="M 1334.15625 1599.039062 C 1346.808594 1607.902344 1352.058594 1619.898438 1349.898438 1635.023438 C 1341.632812 1654.554688 1333.382812 1674.042969 1325.160156 1693.496094 C 1316.164062 1697.996094 1307.167969 1702.492188 1298.171875 1706.992188 C 1292.960938 1690.699219 1292.214844 1674.207031 1295.925781 1657.511719 C 1309.667969 1638.550781 1322.414062 1619.058594 1334.15625 1599.039062 Z M 1334.15625 1599.039062 " fill-opacity="1" fill-rule="evenodd"/><path fill="#b2b4b2" d="M 893.351562 1599.039062 C 908.121094 1616.40625 920.863281 1635.894531 931.585938 1657.511719 C 933.152344 1671.464844 930.902344 1684.960938 924.839844 1697.996094 C 919.226562 1695.566406 913.976562 1692.566406 909.097656 1689 C 898.121094 1668.546875 888.375 1647.558594 879.859375 1626.027344 C 888.472656 1618.960938 892.96875 1609.964844 893.351562 1599.039062 Z M 893.351562 1599.039062 " fill-opacity="1" fill-rule="evenodd"/><path fill="#12161b" d="M 1676.003906 1572.050781 C 1690.4375 1574.359375 1694.9375 1581.855469 1689.5 1594.542969 C 1611.625 1667.621094 1522.417969 1723.097656 1421.867188 1760.96875 C 1418.394531 1760.316406 1415.394531 1758.816406 1412.871094 1756.46875 C 1409.429688 1749.425781 1410.183594 1743.429688 1415.121094 1738.476562 C 1515.542969 1703.308594 1602.503906 1647.832031 1676.003906 1572.050781 Z M 1676.003906 1572.050781 " fill-opacity="1" fill-rule="evenodd"/></svg>