<svg xmlns="http://www.w3.org/2000/svg" xmlns:xlink="http://www.w3.org/1999/xlink" width="3000" zoomAndPan="magnify" viewBox="0 0 2250 2250.000011" height="3000" preserveAspectRatio="xMidYMid meet" version="1.0"><defs><g/></defs><path fill="#9c9ea4" d="M 1055.28125 317.109375 C 1152.015625 311.996094 1246.472656 323.988281 1338.65625 353.09375 C 1340.242188 362.695312 1336.496094 368.691406 1327.410156 371.085938 C 1183.644531 320.625 1041.207031 323.621094 900.101562 380.082031 C 893.945312 373.363281 893.195312 366.617188 897.851562 359.839844 C 950.296875 343.070312 1002.769531 328.828125 1055.28125 317.109375 Z M 1055.28125 317.109375 " fill-opacity="1" fill-rule="evenodd"/><path fill="#eaecea" d="M 717.929688 317.109375 C 715.492188 331.066406 709.492188 343.808594 699.9375 355.34375 C 669.238281 376.324219 639.257812 398.0625 609.980469 420.5625 C 607.535156 420.292969 606.039062 418.792969 605.480469 416.066406 C 628.050781 382.945312 652.789062 351.460938 679.699219 321.605469 C 694.039062 298.863281 708.28125 276.375 722.429688 254.136719 C 726.738281 247.5625 731.984375 241.566406 738.171875 236.144531 C 732.925781 263.191406 726.179688 290.179688 717.929688 317.109375 Z M 717.929688 317.109375 " fill-opacity="1" fill-rule="evenodd"/><path fill="#10171e" d="M 740.421875 321.605469 C 737.171875 319.730469 734.925781 316.730469 733.675781 312.609375 C 732.175781 315.609375 730.671875 318.609375 729.175781 321.605469 C 726.15625 318.222656 722.410156 316.722656 717.929688 317.109375 C 726.179688 290.179688 732.925781 263.191406 738.171875 236.144531 C 731.984375 241.566406 726.738281 247.5625 722.429688 254.136719 C 659.613281 306.476562 610.136719 369.449219 573.996094 443.054688 C 576.109375 447.382812 579.109375 447.382812 582.992188 443.054688 C 583.660156 447.785156 582.914062 452.28125 580.742188 456.546875 C 577.800781 451.167969 575.550781 451.167969 573.996094 456.546875 C 577.351562 462.105469 578.847656 468.105469 578.492188 474.539062 C 564.648438 474.28125 551.152344 472.785156 538.011719 470.042969 C 534.941406 473.382812 531.941406 476.378906 529.015625 479.039062 C 527.695312 450.707031 520.949219 423.71875 508.773438 398.074219 C 490.605469 435.15625 471.863281 471.890625 452.550781 508.273438 C 455.21875 510.359375 458.222656 511.113281 461.542969 510.523438 C 461.542969 515.019531 461.542969 519.519531 461.542969 524.015625 C 478.792969 526.285156 478.792969 530.78125 461.542969 537.511719 C 466.546875 540.953125 469.546875 545.449219 470.539062 551.003906 C 462.089844 550.523438 460.589844 552.773438 466.042969 557.753906 C 490.957031 573.9375 514.945312 591.175781 538.011719 609.480469 C 562.011719 630.921875 586.75 651.914062 612.226562 672.453125 C 613.269531 666.886719 615.519531 662.390625 618.976562 658.957031 C 618.976562 664.953125 618.976562 670.953125 618.976562 676.949219 C 614.476562 676.949219 609.980469 676.949219 605.480469 676.949219 C 605.78125 683.511719 604.285156 689.507812 600.984375 694.941406 C 562.964844 661.667969 523.984375 629.433594 484.035156 598.234375 C 481.035156 595.234375 478.039062 595.234375 475.039062 598.234375 C 482.046875 607.464844 488.046875 617.210938 493.03125 627.472656 C 487.6875 632.796875 482.4375 632.796875 477.289062 627.472656 C 475.199219 630.144531 474.449219 633.144531 475.039062 636.46875 C 470.539062 634.96875 467.539062 631.96875 466.042969 627.472656 C 455.972656 608.847656 444.726562 590.859375 432.308594 573.496094 C 418.589844 698.476562 410.34375 822.917969 407.570312 946.828125 C 409.171875 954.429688 413.671875 958.929688 421.0625 960.324219 C 419.84375 968.78125 422.84375 974.773438 430.058594 978.316406 C 427.746094 986.707031 424.75 994.957031 421.0625 1003.054688 C 426.644531 1010.839844 431.144531 1019.085938 434.558594 1027.792969 C 473.574219 1080.292969 512.550781 1132.773438 551.503906 1185.222656 C 551.503906 1186.722656 551.503906 1188.222656 551.503906 1189.722656 C 554.300781 1194.789062 558.050781 1199.289062 562.75 1203.214844 C 568.484375 1193.242188 572.984375 1182.746094 576.242188 1171.730469 C 577.03125 1188.421875 579.28125 1204.914062 582.992188 1221.207031 C 658.035156 1171.691406 731.5 1119.964844 803.394531 1066.027344 C 824.074219 1052.105469 840.570312 1034.863281 852.871094 1014.300781 C 852.128906 1027.875 852.878906 1041.367188 855.121094 1054.78125 C 856.84375 1057.28125 859.089844 1058.78125 861.867188 1059.277344 C 846.695312 1117.117188 833.199219 1175.59375 821.386719 1234.703125 C 822.882812 1239.199219 824.386719 1243.699219 825.882812 1248.195312 C 870.34375 1268.179688 915.324219 1286.917969 960.824219 1304.421875 C 986.570312 1337.164062 1008.308594 1372.398438 1026.042969 1410.125 C 1043.863281 1501.023438 1008.628906 1535.503906 920.339844 1513.578125 C 909 1506.746094 897.757812 1499.246094 886.605469 1491.085938 C 875.578125 1463.992188 862.832031 1437.753906 848.371094 1412.371094 C 739.890625 1376.730469 634.9375 1333.246094 533.511719 1281.929688 C 482.632812 1230.351562 443.648438 1171.125 416.566406 1104.257812 C 402.433594 1058.859375 387.4375 1013.882812 371.585938 969.320312 C 381.347656 822.164062 394.09375 675.226562 409.816406 528.515625 C 448.347656 470.199219 479.082031 407.976562 502.027344 341.847656 C 595.570312 288.019531 688.527344 233.292969 780.902344 177.671875 C 784.078125 187.863281 783.328125 198.359375 778.652344 209.15625 C 766.515625 247.398438 753.769531 284.882812 740.421875 321.605469 Z M 740.421875 321.605469 " fill-opacity="1" fill-rule="evenodd"/><path fill="#bbbebf" d="M 722.429688 254.136719 C 708.28125 276.375 694.039062 298.863281 679.699219 321.605469 C 652.789062 351.460938 628.050781 382.945312 605.480469 416.066406 C 606.039062 418.792969 607.535156 420.292969 609.980469 420.5625 C 601.164062 428.011719 592.167969 435.511719 582.992188 443.054688 C 579.109375 447.382812 576.109375 447.382812 573.996094 443.054688 C 610.136719 369.449219 659.613281 306.476562 722.429688 254.136719 Z M 722.429688 254.136719 " fill-opacity="1" fill-rule="evenodd"/><path fill="#9ea1a7" d="M 1059.777344 384.578125 C 1146.675781 380.5 1230.636719 393.992188 1311.667969 425.0625 C 1311.667969 431.058594 1311.667969 437.054688 1311.667969 443.054688 C 1279.882812 434.710938 1248.398438 424.964844 1217.207031 413.816406 C 1118.933594 396.703125 1023.726562 406.449219 931.585938 443.054688 C 923.179688 439.144531 920.929688 433.898438 924.839844 427.308594 C 968.972656 408.808594 1013.953125 394.566406 1059.777344 384.578125 Z M 1059.777344 384.578125 " fill-opacity="1" fill-rule="evenodd"/><path fill="#b9bdbd" d="M 641.464844 290.121094 C 644.789062 289.53125 647.789062 290.28125 650.460938 292.371094 C 634.597656 308.234375 618.851562 323.976562 603.230469 339.597656 C 586.378906 371.816406 568.386719 403.304688 549.257812 434.058594 C 544.003906 413.039062 538.753906 392.046875 533.511719 371.085938 C 535.011719 366.585938 536.511719 362.089844 538.011719 357.589844 C 573.890625 336.601562 608.378906 314.113281 641.464844 290.121094 Z M 641.464844 290.121094 " fill-opacity="1" fill-rule="evenodd"/><path fill="#9c9fa5" d="M 1068.773438 452.050781 C 1144.351562 444.070312 1214.816406 459.066406 1280.179688 497.027344 C 1278.296875 502.300781 1275.300781 506.796875 1271.183594 510.523438 C 1169.105469 456.835938 1067.152344 456.835938 965.320312 510.523438 C 956.371094 506.191406 954.871094 500.195312 960.824219 492.53125 C 996.027344 475.320312 1032.011719 461.828125 1068.773438 452.050781 Z M 1068.773438 452.050781 " fill-opacity="1" fill-rule="evenodd"/><path fill="#c6cbcf" d="M 529.015625 479.039062 C 504.640625 485.980469 482.148438 496.480469 461.542969 510.523438 C 458.222656 511.113281 455.21875 510.359375 452.550781 508.273438 C 471.863281 471.890625 490.605469 435.15625 508.773438 398.074219 C 520.949219 423.71875 527.695312 450.707031 529.015625 479.039062 Z M 529.015625 479.039062 " fill-opacity="1" fill-rule="evenodd"/><path fill="#9ea1a6" d="M 1082.269531 519.519531 C 1118.171875 516.289062 1152.65625 521.539062 1185.722656 535.261719 C 1204.632812 542.441406 1221.125 552.933594 1235.199219 566.75 C 1234.691406 572.503906 1231.691406 576.253906 1226.203125 577.992188 C 1151.996094 530.113281 1077.78125 530.113281 1003.554688 577.992188 C 994.664062 573.300781 992.417969 567.300781 996.808594 560 C 1024.445312 543.839844 1052.933594 530.347656 1082.269531 519.519531 Z M 1082.269531 519.519531 " fill-opacity="1" fill-rule="evenodd"/><path fill="#dee0df" d="M 470.539062 551.003906 C 527.351562 555.242188 584.324219 556.738281 641.464844 555.503906 C 637.75 571.859375 634.753906 588.351562 632.46875 604.980469 C 600.910156 602.640625 569.425781 599.640625 538.011719 595.984375 C 538.011719 600.484375 538.011719 604.980469 538.011719 609.480469 C 514.945312 591.175781 490.957031 573.9375 466.042969 557.753906 C 460.589844 552.773438 462.089844 550.523438 470.539062 551.003906 Z M 470.539062 551.003906 " fill-opacity="1" fill-rule="evenodd"/><path fill="#d7dada" d="M 538.011719 609.480469 C 566.589844 613.398438 595.078125 617.894531 623.472656 622.972656 C 623.136719 635.144531 621.636719 647.140625 618.976562 658.957031 C 615.519531 662.390625 613.269531 666.886719 612.226562 672.453125 C 586.75 651.914062 562.011719 630.921875 538.011719 609.480469 Z M 538.011719 609.480469 " fill-opacity="1" fill-rule="evenodd"/><path fill="#bbbec1" d="M 600.984375 694.941406 C 603.425781 695.210938 604.921875 696.707031 605.480469 699.4375 C 602.621094 709.695312 598.121094 718.691406 591.988281 726.425781 C 589 711.976562 580.003906 702.234375 565 697.191406 C 550.007812 682.199219 535.011719 667.203125 520.019531 652.210938 C 515.804688 649.097656 512.808594 649.847656 511.023438 654.460938 C 505.085938 645.628906 499.085938 636.632812 493.03125 627.472656 C 488.046875 617.210938 482.046875 607.464844 475.039062 598.234375 C 478.039062 595.234375 481.035156 595.234375 484.035156 598.234375 C 523.984375 629.433594 562.964844 661.667969 600.984375 694.941406 Z M 600.984375 694.941406 " fill-opacity="1" fill-rule="evenodd"/><path fill="#dadcd9" d="M 466.042969 627.472656 C 467.539062 631.96875 470.539062 634.96875 475.039062 636.46875 C 503.492188 687.367188 531.980469 738.34375 560.5 789.398438 C 524.554688 834.34375 484.070312 874.824219 439.054688 910.84375 C 441.171875 861.058594 446.417969 811.578125 454.796875 762.410156 C 456.296875 718.929688 457.796875 675.453125 459.296875 631.96875 C 461.019531 629.46875 463.269531 627.96875 466.042969 627.472656 Z M 466.042969 627.472656 " fill-opacity="1" fill-rule="evenodd"/><path fill="#c8c8c6" d="M 466.042969 627.472656 C 463.269531 627.96875 461.019531 629.46875 459.296875 631.96875 C 457.796875 675.453125 456.296875 718.929688 454.796875 762.410156 C 446.417969 811.578125 441.171875 861.058594 439.054688 910.84375 C 428.558594 922.839844 418.0625 934.832031 407.570312 946.828125 C 410.34375 822.917969 418.589844 698.476562 432.308594 573.496094 C 444.726562 590.859375 455.972656 608.847656 466.042969 627.472656 Z M 466.042969 627.472656 " fill-opacity="1" fill-rule="evenodd"/><path fill="#dddede" d="M 1824.4375 964.820312 C 1824.574219 969.304688 1822.324219 972.304688 1817.691406 973.816406 C 1773.542969 982.8125 1730.8125 994.808594 1689.5 1009.800781 C 1676.429688 1015.429688 1662.933594 1017.675781 1649.015625 1016.546875 C 1611.863281 1003.957031 1575.878906 988.964844 1541.066406 971.566406 C 1580.625 917.777344 1622.609375 866.050781 1667.007812 816.386719 C 1718.101562 867.484375 1770.574219 916.960938 1824.4375 964.820312 Z M 1824.4375 964.820312 " fill-opacity="1" fill-rule="evenodd"/><path fill="#dcdddc" d="M 430.058594 978.316406 C 422.84375 974.773438 419.84375 968.78125 421.0625 960.324219 C 475.808594 915.558594 528.285156 867.578125 578.492188 816.386719 C 622.894531 866.050781 664.878906 917.777344 704.4375 971.566406 C 666.960938 991.058594 627.976562 1006.800781 587.488281 1018.796875 C 535.652344 1002.515625 483.179688 989.019531 430.058594 978.316406 Z M 430.058594 978.316406 " fill-opacity="1" fill-rule="evenodd"/><path fill="#0e151c" d="M 1864.921875 919.839844 C 1865.652344 930.441406 1864.90625 940.9375 1862.671875 951.328125 C 1856.957031 945.105469 1850.207031 940.609375 1842.429688 937.832031 C 1832.304688 817.871094 1821.0625 697.921875 1808.695312 577.992188 C 1798.898438 594.609375 1789.152344 611.101562 1779.460938 627.472656 C 1748.476562 681.222656 1716.992188 734.445312 1685 787.148438 C 1720.03125 833.429688 1760.511719 874.660156 1806.445312 910.84375 C 1816.941406 922.839844 1827.4375 934.832031 1837.933594 946.828125 C 1838.433594 949.605469 1839.929688 951.855469 1842.429688 953.578125 C 1835.386719 956.3125 1829.386719 960.0625 1824.4375 964.820312 C 1770.574219 916.960938 1718.101562 867.484375 1667.007812 816.386719 C 1622.609375 866.050781 1580.625 917.777344 1541.066406 971.566406 C 1575.878906 988.964844 1611.863281 1003.957031 1649.015625 1016.546875 C 1662.933594 1017.675781 1676.429688 1015.429688 1689.5 1009.800781 C 1701.136719 1013.429688 1703.382812 1019.429688 1696.246094 1027.792969 C 1694.382812 1025.738281 1692.136719 1024.234375 1689.5 1023.296875 C 1685.320312 1028.644531 1683.824219 1034.640625 1685 1041.289062 C 1675.171875 1042.203125 1666.175781 1045.199219 1658.011719 1050.285156 C 1565.503906 1015.652344 1474.792969 976.667969 1385.882812 933.335938 C 1383.710938 937.597656 1382.964844 942.097656 1383.636719 946.828125 C 1376.582031 957.371094 1378.078125 966.367188 1388.132812 973.816406 C 1383.378906 975.644531 1377.378906 975.644531 1370.140625 973.816406 C 1370.847656 967.640625 1370.097656 961.640625 1367.890625 955.824219 C 1365.390625 965.25 1363.140625 966 1361.144531 958.074219 C 1368.554688 946.570312 1367.050781 942.816406 1356.648438 946.828125 C 1357.027344 940.105469 1354.035156 935.605469 1347.652344 933.335938 C 1295.546875 953.703125 1243.066406 973.195312 1190.222656 991.808594 C 1176.792969 1014.097656 1167.796875 1038.089844 1163.234375 1063.777344 C 1161.5 1087.472656 1171.996094 1100.964844 1194.71875 1104.257812 C 1193.539062 1072.546875 1200.289062 1042.558594 1214.960938 1014.300781 C 1231.777344 1006.945312 1249.023438 1000.945312 1266.6875 996.308594 C 1271.417969 995.636719 1275.917969 996.382812 1280.179688 998.554688 C 1283.996094 1003.898438 1283.996094 1010.648438 1280.179688 1018.796875 C 1248.179688 1020.058594 1229.433594 1036.550781 1223.957031 1068.273438 C 1221.71875 1080.175781 1220.96875 1092.171875 1221.707031 1104.257812 C 1233.398438 1104.039062 1243.144531 1099.539062 1250.945312 1090.765625 C 1257.023438 1076.28125 1260.777344 1061.289062 1262.1875 1045.785156 C 1294.28125 1040.382812 1325.769531 1032.890625 1356.648438 1023.296875 C 1361.128906 1022.910156 1364.875 1024.410156 1367.890625 1027.792969 C 1373.695312 1016.734375 1380.441406 1006.238281 1388.132812 996.308594 C 1391.15625 1002.824219 1394.15625 1008.820312 1397.128906 1014.300781 C 1396.539062 1017.625 1397.289062 1020.625 1399.378906 1023.296875 C 1417.179688 1041.453125 1435.917969 1057.949219 1455.601562 1072.773438 C 1456.832031 1081.550781 1453.835938 1088.296875 1446.605469 1093.015625 C 1449.988281 1096.03125 1451.492188 1099.777344 1451.105469 1104.257812 C 1440.277344 1098.4375 1430.53125 1090.941406 1421.867188 1081.769531 C 1431.820312 1127.773438 1441.570312 1174.253906 1451.105469 1221.207031 C 1451.734375 1228.089844 1454.734375 1232.585938 1460.101562 1234.703125 C 1450.074219 1242.113281 1439.582031 1245.109375 1428.613281 1243.699219 C 1411.882812 1180.042969 1395.386719 1116.320312 1379.136719 1052.53125 C 1349.839844 1053.472656 1321.355469 1059.472656 1293.675781 1070.523438 C 1281.71875 1118.15625 1250.984375 1139.898438 1201.464844 1135.746094 C 1156.472656 1133.472656 1133.230469 1109.484375 1131.746094 1063.777344 C 1139.542969 1029.414062 1153.035156 997.175781 1172.230469 967.070312 C 1234.644531 942.625 1297.617188 919.382812 1361.144531 897.351562 C 1381.511719 907.394531 1402.503906 914.140625 1424.117188 917.59375 C 1453.359375 866.589844 1484.84375 817.113281 1518.574219 769.160156 C 1480.621094 771.246094 1443.140625 775.742188 1406.125 782.652344 C 1385.273438 761.054688 1361.285156 743.808594 1334.15625 730.925781 C 1318.535156 701.09375 1302.042969 671.859375 1284.679688 643.214844 C 1299.757812 614.527344 1314 585.289062 1327.410156 555.503906 C 1328.90625 522.519531 1330.410156 489.53125 1331.90625 456.546875 C 1354.902344 445.445312 1375.144531 431.199219 1392.632812 413.816406 C 1362.203125 358.40625 1338.960938 300.683594 1322.910156 240.644531 C 1382.996094 263.902344 1440.71875 292.390625 1496.085938 326.105469 C 1497.582031 324.605469 1499.085938 323.105469 1500.582031 321.605469 C 1483.757812 275.625 1468.765625 229.144531 1455.601562 182.167969 C 1465.296875 181.59375 1474.292969 183.84375 1482.589844 188.917969 C 1569.191406 242.34375 1656.902344 294.070312 1745.722656 344.097656 C 1769.65625 411.398438 1799.640625 475.871094 1835.683594 537.511719 C 1847.207031 664.75 1856.949219 792.195312 1864.921875 919.839844 Z M 1864.921875 919.839844 " fill-opacity="1" fill-rule="evenodd"/><path fill="#dcdddb" d="M 1586.046875 766.910156 C 1607.28125 774.925781 1626.769531 785.417969 1644.519531 798.394531 C 1603.398438 855.289062 1559.167969 909.265625 1511.828125 960.324219 C 1505.265625 958.9375 1500.015625 955.9375 1496.085938 951.328125 C 1518.988281 896.527344 1546.726562 844.054688 1579.296875 793.898438 C 1582.953125 785.1875 1585.203125 776.191406 1586.046875 766.910156 Z M 1586.046875 766.910156 " fill-opacity="1" fill-rule="evenodd"/><path fill="#c3c6c7" d="M 1842.429688 937.832031 C 1843.203125 942.296875 1841.703125 945.289062 1837.933594 946.828125 C 1827.4375 934.832031 1816.941406 922.839844 1806.445312 910.84375 C 1809.828125 887.25 1807.582031 863.257812 1799.699219 838.878906 C 1795.144531 783.492188 1792.148438 728.015625 1790.703125 672.453125 C 1790.585938 655.902344 1786.835938 640.910156 1779.460938 627.472656 C 1789.152344 611.101562 1798.898438 594.609375 1808.695312 577.992188 C 1821.0625 697.921875 1832.304688 817.871094 1842.429688 937.832031 Z M 1842.429688 937.832031 " fill-opacity="1" fill-rule="evenodd"/><path fill="#f5f9f9" d="M 1586.046875 766.910156 C 1585.203125 776.191406 1582.953125 785.1875 1579.296875 793.898438 C 1546.726562 844.054688 1518.988281 896.527344 1496.085938 951.328125 C 1478.523438 948.542969 1463.53125 941.050781 1451.105469 928.835938 C 1482.207031 874.117188 1514.445312 820.144531 1547.8125 766.910156 C 1551.136719 762.078125 1555.632812 759.078125 1561.304688 757.914062 C 1569.402344 761.601562 1577.652344 764.597656 1586.046875 766.910156 Z M 1586.046875 766.910156 " fill-opacity="1" fill-rule="evenodd"/><path fill="#c9ced0" d="M 1613.03125 712.933594 C 1624.355469 724.296875 1631.851562 738.535156 1635.523438 755.664062 C 1634.023438 757.914062 1632.523438 760.164062 1631.023438 762.410156 C 1615.898438 756.371094 1602.402344 748.125 1590.542969 737.671875 C 1597.90625 729.449219 1605.398438 721.203125 1613.03125 712.933594 Z M 1613.03125 712.933594 " fill-opacity="1" fill-rule="evenodd"/><path fill="#babdbd" d="M 1446.605469 712.933594 C 1471.363281 716.875 1495.351562 723.621094 1518.574219 733.175781 C 1487.351562 741.371094 1455.863281 748.117188 1424.117188 753.414062 C 1416.195312 751.007812 1410.199219 746.511719 1406.125 739.921875 C 1423.507812 736.5 1437.003906 727.503906 1446.605469 712.933594 Z M 1446.605469 712.933594 " fill-opacity="1" fill-rule="evenodd"/><path fill="#bdc2c6" d="M 1505.082031 703.9375 C 1506.957031 701.128906 1509.957031 699.632812 1514.078125 699.4375 C 1536.597656 701.980469 1559.089844 704.980469 1581.546875 708.433594 C 1577.050781 715.933594 1571.054688 721.929688 1563.554688 726.425781 C 1544.753906 716.863281 1525.257812 709.371094 1505.082031 703.9375 Z M 1505.082031 703.9375 " fill-opacity="1" fill-rule="evenodd"/><path fill="#d6d8d7" d="M 1761.46875 595.984375 C 1764.792969 595.394531 1767.792969 596.148438 1770.464844 598.234375 C 1735.792969 654.835938 1700.554688 711.0625 1664.761719 766.910156 C 1652.652344 744.089844 1645.152344 720.097656 1642.269531 694.941406 C 1684.167969 664.261719 1723.898438 631.277344 1761.46875 595.984375 Z M 1761.46875 595.984375 " fill-opacity="1" fill-rule="evenodd"/><path fill="#d4d7d6" d="M 1419.617188 681.445312 C 1423.558594 682.035156 1426.558594 680.539062 1428.613281 676.949219 C 1420.558594 673.9375 1413.0625 670.933594 1406.125 667.953125 C 1467.234375 661.667969 1527.210938 649.679688 1586.046875 631.96875 C 1591.203125 633.398438 1594.957031 636.394531 1597.289062 640.964844 C 1600.34375 660.65625 1604.089844 680.148438 1608.535156 699.4375 C 1544.753906 695.003906 1481.78125 689.007812 1419.617188 681.445312 Z M 1419.617188 681.445312 " fill-opacity="1" fill-rule="evenodd"/><path fill="#dcdddd" d="M 1779.460938 627.472656 C 1786.835938 640.910156 1790.585938 655.902344 1790.703125 672.453125 C 1792.148438 728.015625 1795.144531 783.492188 1799.699219 838.878906 C 1807.582031 863.257812 1809.828125 887.25 1806.445312 910.84375 C 1760.511719 874.660156 1720.03125 833.429688 1685 787.148438 C 1716.992188 734.445312 1748.476562 681.222656 1779.460938 627.472656 Z M 1779.460938 627.472656 " fill-opacity="1" fill-rule="evenodd"/><path fill="#eaeeef" d="M 1509.578125 524.015625 C 1519.15625 546.445312 1513.160156 566.683594 1491.585938 584.738281 C 1494.089844 586.464844 1495.585938 588.710938 1496.085938 591.488281 C 1462.332031 615.109375 1427.847656 637.601562 1392.632812 658.957031 C 1396.484375 663.117188 1400.984375 666.117188 1406.125 667.953125 C 1413.0625 670.933594 1420.558594 673.9375 1428.613281 676.949219 C 1426.558594 680.539062 1423.558594 682.035156 1419.617188 681.445312 C 1412.121094 681.445312 1404.628906 681.445312 1397.128906 681.445312 C 1396.363281 687.394531 1397.863281 692.644531 1401.628906 697.191406 C 1417.277344 701.085938 1432.265625 706.335938 1446.605469 712.933594 C 1437.003906 727.503906 1423.507812 736.5 1406.125 739.921875 C 1379.554688 728.59375 1359.3125 710.601562 1345.402344 685.945312 C 1342.402344 679.949219 1342.402344 673.949219 1345.402344 667.953125 C 1362.289062 642.054688 1382.527344 618.8125 1406.125 598.234375 C 1429.230469 592.53125 1451.722656 585.035156 1473.59375 575.746094 C 1488.40625 560.335938 1500.398438 543.09375 1509.578125 524.015625 Z M 1509.578125 524.015625 " fill-opacity="1" fill-rule="evenodd"/><path fill="#d2d7d9" d="M 1572.550781 568.996094 C 1582.683594 582.550781 1585.683594 597.542969 1581.546875 613.976562 C 1541.183594 625.945312 1500.699219 635.695312 1460.101562 643.214844 C 1497.878906 618.367188 1535.363281 593.628906 1572.550781 568.996094 Z M 1572.550781 568.996094 " fill-opacity="1" fill-rule="evenodd"/><path fill="#dbdddc" d="M 1707.492188 551.003906 C 1733.023438 550.257812 1758.511719 551.007812 1783.957031 553.253906 C 1730.535156 589.726562 1679.558594 629.460938 1631.023438 672.453125 C 1621.652344 657.46875 1617.152344 640.980469 1617.53125 622.972656 C 1644.695312 617.945312 1671.683594 611.949219 1698.496094 604.980469 C 1668.199219 599.507812 1638.210938 601.007812 1608.535156 609.480469 C 1604.101562 591.742188 1601.105469 573.75 1599.539062 555.503906 C 1636.351562 556.96875 1672.335938 555.46875 1707.492188 551.003906 Z M 1707.492188 551.003906 " fill-opacity="1" fill-rule="evenodd"/><path fill="#d7d9da" d="M 1554.558594 398.074219 C 1592.507812 424.722656 1629.996094 452.457031 1667.007812 481.285156 C 1696.046875 497.976562 1726.035156 512.96875 1756.96875 526.265625 C 1703.425781 533.574219 1649.449219 535.074219 1595.042969 530.765625 C 1581.105469 486.710938 1567.613281 442.480469 1554.558594 398.074219 Z M 1554.558594 398.074219 " fill-opacity="1" fill-rule="evenodd"/><path fill="#ced0d0" d="M 1729.980469 402.570312 C 1733.921875 401.980469 1736.921875 403.480469 1738.976562 407.070312 C 1755.472656 440.054688 1771.960938 473.042969 1788.453125 506.023438 C 1763.351562 501.375 1738.613281 492.378906 1714.238281 479.039062 C 1717.976562 453.484375 1723.226562 427.996094 1729.980469 402.570312 Z M 1729.980469 402.570312 " fill-opacity="1" fill-rule="evenodd"/><path fill="#f6f9f9" d="M 1514.078125 371.085938 C 1514.746094 375.816406 1514 380.316406 1511.828125 384.578125 C 1475.964844 423.441406 1438.484375 460.921875 1399.378906 497.027344 C 1386.742188 529.597656 1375.5 562.582031 1365.644531 595.984375 C 1359.511719 602.1875 1355.015625 601.441406 1352.148438 593.734375 C 1354.171875 587.957031 1357.171875 582.707031 1361.144531 577.992188 C 1357.789062 572.433594 1356.292969 566.433594 1356.648438 560 C 1359.007812 531.554688 1361.257812 503.066406 1363.394531 474.539062 C 1411.796875 437.234375 1462.027344 402.746094 1514.078125 371.085938 Z M 1514.078125 371.085938 " fill-opacity="1" fill-rule="evenodd"/><path fill="#dadcdd" d="M 1514.078125 371.085938 C 1535.488281 424.835938 1553.480469 480.308594 1568.054688 537.511719 C 1567.921875 544.386719 1564.921875 549.636719 1559.058594 553.253906 C 1537.394531 565.226562 1516.40625 577.96875 1496.085938 591.488281 C 1495.585938 588.710938 1494.089844 586.464844 1491.585938 584.738281 C 1513.160156 566.683594 1519.15625 546.445312 1509.578125 524.015625 C 1516.144531 515.1875 1523.644531 506.941406 1532.070312 499.277344 C 1502.300781 493.078125 1472.3125 491.582031 1442.109375 494.78125 C 1425.128906 501.265625 1412.386719 512.511719 1403.875 528.515625 C 1392.707031 579.359375 1364.96875 618.34375 1320.664062 645.464844 C 1319.164062 643.964844 1317.664062 642.464844 1316.164062 640.964844 C 1330.269531 613.625 1343.765625 586.636719 1356.648438 560 C 1356.292969 566.433594 1357.789062 572.433594 1361.144531 577.992188 C 1357.171875 582.707031 1354.171875 587.957031 1352.148438 593.734375 C 1355.015625 601.441406 1359.511719 602.1875 1365.644531 595.984375 C 1375.5 562.582031 1386.742188 529.597656 1399.378906 497.027344 C 1438.484375 460.921875 1475.964844 423.441406 1511.828125 384.578125 C 1514 380.316406 1514.746094 375.816406 1514.078125 371.085938 Z M 1514.078125 371.085938 " fill-opacity="1" fill-rule="evenodd"/><path fill="#e3e9eb" d="M 1451.105469 519.519531 C 1460.222656 518.789062 1469.21875 519.542969 1478.09375 521.769531 C 1468.027344 549.953125 1448.535156 563.445312 1419.617188 562.25 C 1426.375 544.882812 1436.867188 530.636719 1451.105469 519.519531 Z M 1451.105469 519.519531 " fill-opacity="1" fill-rule="evenodd"/><path fill="#b7bcc0" d="M 1518.574219 254.136719 C 1557.550781 283.371094 1591.285156 317.855469 1619.78125 357.589844 C 1635.886719 388.3125 1653.128906 418.296875 1671.507812 447.550781 C 1670.757812 449.050781 1670.007812 450.550781 1669.257812 452.050781 C 1652.773438 439.007812 1637.03125 425.511719 1622.027344 411.566406 C 1625.96875 412.15625 1628.96875 410.65625 1631.023438 407.070312 C 1604.367188 367.652344 1575.128906 330.171875 1543.3125 294.621094 C 1534.964844 280.875 1526.722656 267.378906 1518.574219 254.136719 Z M 1518.574219 254.136719 " fill-opacity="1" fill-rule="evenodd"/><path fill="#c2c3c5" d="M 1599.539062 294.621094 C 1601.324219 290.007812 1604.320312 289.257812 1608.535156 292.371094 C 1642.664062 319.742188 1678.648438 344.480469 1716.488281 366.585938 C 1708.683594 389.25 1700.4375 411.738281 1691.746094 434.058594 C 1675.253906 402.570312 1658.765625 371.085938 1642.269531 339.597656 C 1630.144531 322.234375 1615.898438 307.242188 1599.539062 294.621094 Z M 1599.539062 294.621094 " fill-opacity="1" fill-rule="evenodd"/><path fill="#b6b7b8" d="M 1365.644531 290.121094 C 1407.3125 309.460938 1447.792969 331.199219 1487.089844 355.34375 C 1463.738281 371.476562 1439.746094 384.96875 1415.121094 395.824219 C 1396.449219 361.515625 1379.957031 326.28125 1365.644531 290.121094 Z M 1365.644531 290.121094 " fill-opacity="1" fill-rule="evenodd"/><path fill="#f2f5f6" d="M 1518.574219 254.136719 C 1526.722656 267.378906 1534.964844 280.875 1543.3125 294.621094 C 1575.128906 330.171875 1604.367188 367.652344 1631.023438 407.070312 C 1628.96875 410.65625 1625.96875 412.15625 1622.027344 411.566406 C 1591.601562 394.441406 1563.867188 373.449219 1538.816406 348.59375 C 1525.25 311.128906 1513.257812 273.644531 1502.832031 236.144531 C 1507.101562 243.3125 1512.34375 249.308594 1518.574219 254.136719 Z M 1518.574219 254.136719 " fill-opacity="1" fill-rule="evenodd"/><path fill="#f0f3f4" d="M 1658.011719 1050.285156 C 1659.398438 1061.1875 1657.894531 1071.679688 1653.515625 1081.769531 C 1585.566406 1045.539062 1515.101562 1015.554688 1442.109375 991.808594 C 1414.207031 986.277344 1394.714844 971.285156 1383.636719 946.828125 C 1382.964844 942.097656 1383.710938 937.597656 1385.882812 933.335938 C 1474.792969 976.667969 1565.503906 1015.652344 1658.011719 1050.285156 Z M 1658.011719 1050.285156 " fill-opacity="1" fill-rule="evenodd"/><path fill="#0f151b" d="M 861.867188 1059.277344 C 859.089844 1058.78125 856.84375 1057.28125 855.121094 1054.78125 C 852.878906 1041.367188 852.128906 1027.875 852.871094 1014.300781 C 856.101562 1006.9375 856.847656 999.441406 855.121094 991.808594 C 848.835938 998.871094 842.089844 1004.871094 834.878906 1009.800781 C 749.488281 1049.496094 665.523438 1091.480469 582.992188 1135.746094 C 578.492188 1135.746094 573.996094 1135.746094 569.496094 1135.746094 C 567.882812 1127.328125 563.382812 1120.582031 556.003906 1115.503906 C 534.289062 1100.515625 513.304688 1084.773438 493.03125 1068.273438 C 474.488281 1053.730469 455 1040.234375 434.558594 1027.792969 C 431.144531 1019.085938 426.644531 1010.839844 421.0625 1003.054688 C 424.75 994.957031 427.746094 986.707031 430.058594 978.316406 C 483.179688 989.019531 535.652344 1002.515625 587.488281 1018.796875 C 627.976562 1006.800781 666.960938 991.058594 704.4375 971.566406 C 664.878906 917.777344 622.894531 866.050781 578.492188 816.386719 C 528.285156 867.578125 475.808594 915.558594 421.0625 960.324219 C 413.671875 958.929688 409.171875 954.429688 407.570312 946.828125 C 418.0625 934.832031 428.558594 922.839844 439.054688 910.84375 C 484.070312 874.824219 524.554688 834.34375 560.5 789.398438 C 531.980469 738.34375 503.492188 687.367188 475.039062 636.46875 C 474.449219 633.144531 475.199219 630.144531 477.289062 627.472656 C 482.4375 632.796875 487.6875 632.796875 493.03125 627.472656 C 499.085938 636.632812 505.085938 645.628906 511.023438 654.460938 C 534.59375 691.074219 557.082031 728.554688 578.492188 766.910156 C 585.695312 754.296875 590.191406 740.804688 591.988281 726.425781 C 598.121094 718.691406 602.621094 709.695312 605.480469 699.4375 C 604.921875 696.707031 603.425781 695.210938 600.984375 694.941406 C 604.285156 689.507812 605.78125 683.511719 605.480469 676.949219 C 609.980469 676.949219 614.476562 676.949219 618.976562 676.949219 C 618.976562 670.953125 618.976562 664.953125 618.976562 658.957031 C 621.636719 647.140625 623.136719 635.144531 623.472656 622.972656 C 595.078125 617.894531 566.589844 613.398438 538.011719 609.480469 C 538.011719 604.980469 538.011719 600.484375 538.011719 595.984375 C 569.425781 599.640625 600.910156 602.640625 632.46875 604.980469 C 634.753906 588.351562 637.75 571.859375 641.464844 555.503906 C 584.324219 556.738281 527.351562 555.242188 470.539062 551.003906 C 469.546875 545.449219 466.546875 540.953125 461.542969 537.511719 C 478.792969 530.78125 478.792969 526.285156 461.542969 524.015625 C 461.542969 519.519531 461.542969 515.019531 461.542969 510.523438 C 482.148438 496.480469 504.640625 485.980469 529.015625 479.039062 C 531.941406 476.378906 534.941406 473.382812 538.011719 470.042969 C 551.152344 472.785156 564.648438 474.28125 578.492188 474.539062 C 578.847656 468.105469 577.351562 462.105469 573.996094 456.546875 C 575.550781 451.167969 577.800781 451.167969 580.742188 456.546875 C 582.914062 452.28125 583.660156 447.785156 582.992188 443.054688 C 592.167969 435.511719 601.164062 428.011719 609.980469 420.5625 C 639.257812 398.0625 669.238281 376.324219 699.9375 355.34375 C 709.492188 343.808594 715.492188 331.066406 717.929688 317.109375 C 722.410156 316.722656 726.15625 318.222656 729.175781 321.605469 C 730.671875 318.609375 732.175781 315.609375 733.675781 312.609375 C 734.925781 316.730469 737.171875 319.730469 740.421875 321.605469 C 740.691406 324.050781 742.1875 325.550781 744.917969 326.105469 C 802.429688 295.476562 860.152344 265.488281 918.09375 236.144531 C 921.09375 242.140625 921.09375 248.140625 918.09375 254.136719 C 896.707031 308.152344 873.46875 361.378906 848.371094 413.816406 C 865.480469 429.570312 884.21875 443.8125 904.597656 456.546875 C 907.75 492.746094 912.25 528.730469 918.09375 564.5 C 931.445312 590.460938 944.195312 616.699219 956.324219 643.214844 C 939.175781 669.261719 924.933594 697 913.59375 726.425781 C 889.21875 740.277344 865.976562 756.019531 843.875 773.65625 C 835.480469 778.085938 826.484375 780.335938 816.886719 780.402344 C 786.601562 776.617188 756.617188 772.867188 726.925781 769.160156 C 761.964844 816.230469 793.453125 865.707031 821.386719 917.59375 C 841.84375 915.015625 861.332031 908.269531 879.859375 897.351562 C 935.601562 922.179688 992.578125 943.921875 1050.78125 962.570312 C 1057.21875 964.664062 1062.464844 968.414062 1066.527344 973.816406 C 1077.898438 997.4375 1088.390625 1021.425781 1098.011719 1045.785156 C 1111.664062 1102.585938 1089.925781 1134.070312 1032.789062 1140.242188 C 988.800781 1140.394531 961.0625 1119.402344 949.578125 1077.269531 C 924.664062 1066.914062 899.179688 1057.917969 873.113281 1050.285156 C 867.261719 1050.910156 863.511719 1053.902344 861.867188 1059.277344 Z M 861.867188 1059.277344 " fill-opacity="1" fill-rule="evenodd"/><path fill="#d8dada" d="M 654.957031 766.910156 C 689.449219 826.898438 723.9375 886.871094 758.414062 946.828125 C 749.472656 956.613281 738.976562 959.609375 726.925781 955.824219 C 686.546875 904.195312 645.316406 853.222656 603.230469 802.894531 C 601.058594 798.628906 600.3125 794.132812 600.984375 789.398438 C 619.519531 783.703125 637.511719 776.210938 654.957031 766.910156 Z M 654.957031 766.910156 " fill-opacity="1" fill-rule="evenodd"/><path fill="#f7f8f8" d="M 758.414062 946.828125 C 723.9375 886.871094 689.449219 826.898438 654.957031 766.910156 C 664.871094 760.40625 675.367188 756.652344 686.445312 755.664062 C 726.371094 810.742188 762.351562 868.46875 794.398438 928.835938 C 784.917969 939.574219 772.929688 945.570312 758.414062 946.828125 Z M 758.414062 946.828125 " fill-opacity="1" fill-rule="evenodd"/><path fill="#bdc0c3" d="M 807.890625 708.433594 C 806.023438 719.445312 810.523438 725.441406 821.386719 726.425781 C 834.613281 723.265625 847.359375 718.765625 859.617188 712.933594 C 863.675781 714.027344 867.421875 715.527344 870.863281 717.429688 C 854.167969 731.082031 836.175781 743.078125 816.886719 753.414062 C 784.945312 748.488281 753.460938 741.742188 722.429688 733.175781 C 750.742188 724.222656 779.234375 715.972656 807.890625 708.433594 Z M 807.890625 708.433594 " fill-opacity="1" fill-rule="evenodd"/><path fill="#caced0" d="M 623.472656 712.933594 C 633.832031 721.140625 644.324219 729.386719 654.957031 737.671875 C 639.125 747.558594 623.382812 757.304688 607.730469 766.910156 C 608.804688 747.917969 614.050781 729.925781 623.472656 712.933594 Z M 623.472656 712.933594 " fill-opacity="1" fill-rule="evenodd"/><path fill="#bec6ca" d="M 722.429688 699.4375 C 728.605469 698.734375 734.605469 699.484375 740.421875 701.6875 C 719.566406 708.890625 698.582031 715.636719 677.449219 721.929688 C 668.199219 719.464844 660.703125 714.21875 654.957031 706.1875 C 678.277344 705.402344 700.765625 703.15625 722.429688 699.4375 Z M 722.429688 699.4375 " fill-opacity="1" fill-rule="evenodd"/><path fill="#dfe1e2" d="M 591.988281 726.425781 C 590.191406 740.804688 585.695312 754.296875 578.492188 766.910156 C 557.082031 728.554688 534.59375 691.074219 511.023438 654.460938 C 512.808594 649.847656 515.804688 649.097656 520.019531 652.210938 C 535.011719 667.203125 550.007812 682.199219 565 697.191406 C 580.003906 702.234375 589 711.976562 591.988281 726.425781 Z M 591.988281 726.425781 " fill-opacity="1" fill-rule="evenodd"/><path fill="#d7dada" d="M 848.371094 658.957031 C 852.773438 660.355469 855.773438 663.355469 857.367188 667.953125 C 855.507812 678.832031 851.007812 687.828125 843.875 694.941406 C 838.503906 689.199219 831.011719 686.195312 821.386719 685.945312 C 765.96875 688.863281 710.492188 693.363281 654.957031 699.4375 C 643.78125 700.613281 636.285156 696.113281 632.46875 685.945312 C 635.359375 670.722656 639.113281 655.730469 643.714844 640.964844 C 646.046875 636.394531 649.800781 633.398438 654.957031 631.96875 C 696.960938 643.21875 738.945312 654.464844 780.902344 665.703125 C 800.394531 668.703125 819.886719 668.703125 839.375 665.703125 C 843.496094 664.453125 846.492188 662.203125 848.371094 658.957031 Z M 848.371094 658.957031 " fill-opacity="1" fill-rule="evenodd"/><path fill="#d3d7da" d="M 659.457031 568.996094 C 702.074219 592.558594 744.054688 617.296875 785.402344 643.214844 C 740.761719 633.566406 695.78125 623.820312 650.460938 613.976562 C 654.390625 599.183594 657.390625 584.1875 659.457031 568.996094 Z M 659.457031 568.996094 " fill-opacity="1" fill-rule="evenodd"/><path fill="#f0f3f3" d="M 780.902344 582.492188 C 803.265625 585.082031 824.257812 591.828125 843.875 602.730469 C 861.773438 628.113281 881.261719 652.101562 902.347656 674.699219 C 899.429688 695.09375 888.9375 709.339844 870.863281 717.429688 C 867.421875 715.527344 863.675781 714.027344 859.617188 712.933594 C 847.359375 718.765625 834.613281 723.265625 821.386719 726.425781 C 810.523438 725.441406 806.023438 719.445312 807.890625 708.433594 C 819.5 703.992188 831.496094 699.492188 843.875 694.941406 C 851.007812 687.828125 855.507812 678.832031 857.367188 667.953125 C 855.773438 663.355469 852.773438 660.355469 848.371094 658.957031 C 830.273438 645.324219 812.28125 631.828125 794.398438 618.476562 C 785.375 605.632812 773.382812 595.890625 758.414062 589.238281 C 764.734375 583.53125 772.226562 581.28125 780.902344 582.492188 Z M 780.902344 582.492188 " fill-opacity="1" fill-rule="evenodd"/><path fill="#dadcdb" d="M 578.492188 474.539062 C 617.757812 451.476562 654.492188 424.492188 688.695312 393.574219 C 678.324219 440.226562 664.085938 485.957031 645.960938 530.765625 C 590.425781 534.511719 534.953125 533.761719 479.535156 528.515625 C 506.671875 516.214844 533.660156 503.46875 560.5 490.28125 C 567.667969 486.011719 573.660156 480.769531 578.492188 474.539062 Z M 578.492188 474.539062 " fill-opacity="1" fill-rule="evenodd"/><path fill="#dcdedf" d="M 722.429688 389.078125 C 727.160156 388.40625 731.660156 389.15625 735.921875 391.324219 C 765.160156 426.558594 797.398438 458.796875 832.628906 488.03125 C 850.546875 516.769531 860.289062 548.257812 861.867188 582.492188 C 849.648438 556.570312 836.15625 531.078125 821.386719 506.023438 C 804.449219 495.109375 785.707031 490.609375 765.160156 492.53125 C 747.164062 491.871094 729.921875 494.871094 713.433594 501.527344 C 732.839844 519.347656 747.832031 540.339844 758.414062 564.5 C 766.105469 570.738281 773.601562 576.738281 780.902344 582.492188 C 772.226562 581.28125 764.734375 583.53125 758.414062 589.238281 C 773.382812 595.890625 785.375 605.632812 794.398438 618.476562 C 757.914062 597.96875 721.929688 576.226562 686.445312 553.253906 C 678.730469 549.757812 674.234375 543.761719 672.949219 535.261719 C 687.347656 485.320312 703.839844 436.589844 722.429688 389.078125 Z M 722.429688 389.078125 " fill-opacity="1" fill-rule="evenodd"/><path fill="#dadee1" d="M 767.410156 519.519531 C 795.300781 518.832031 813.292969 532.324219 821.386719 560 C 810.597656 565.507812 800.105469 564.761719 789.898438 557.753906 C 775.453125 548.671875 767.957031 535.921875 767.410156 519.519531 Z M 767.410156 519.519531 " fill-opacity="1" fill-rule="evenodd"/><path fill="#f2f5f6" d="M 861.867188 582.492188 C 860.289062 548.257812 850.546875 516.769531 832.628906 488.03125 C 797.398438 458.796875 765.160156 426.558594 735.921875 391.324219 C 731.660156 389.15625 727.160156 388.40625 722.429688 389.078125 C 721.582031 381.867188 723.832031 375.867188 729.175781 371.085938 C 778.652344 405.570312 828.132812 440.054688 877.609375 474.539062 C 874.6875 532.578125 888.929688 585.800781 920.339844 634.21875 C 918.84375 636.46875 917.339844 638.714844 915.84375 640.964844 C 892.710938 626.164062 874.71875 606.667969 861.867188 582.492188 Z M 861.867188 582.492188 " fill-opacity="1" fill-rule="evenodd"/><path fill="#b1b4b6" d="M 843.875 308.113281 C 844.464844 311.4375 843.714844 314.4375 841.625 317.109375 C 823.785156 330.441406 807.292969 345.433594 792.148438 362.089844 C 789.148438 365.089844 789.148438 368.085938 792.148438 371.085938 C 816.199219 353.738281 839.441406 335.746094 861.867188 317.109375 C 853.101562 346.640625 839.605469 373.628906 821.386719 398.074219 C 800.367188 384.539062 779.378906 371.046875 758.414062 357.589844 C 783.304688 335.382812 811.796875 318.890625 843.875 308.113281 Z M 843.875 308.113281 " fill-opacity="1" fill-rule="evenodd"/><path fill="#e7eae9" d="M 861.867188 317.109375 C 839.441406 335.746094 816.199219 353.738281 792.148438 371.085938 C 789.148438 368.085938 789.148438 365.089844 792.148438 362.089844 C 807.292969 345.433594 823.785156 330.441406 841.625 317.109375 C 843.714844 314.4375 844.464844 311.4375 843.875 308.113281 C 867.652344 287.070312 873.652344 290.070312 861.867188 317.109375 Z M 861.867188 317.109375 " fill-opacity="1" fill-rule="evenodd"/><path fill="#ecf0f1" d="M 893.351562 933.335938 C 942.339844 955.914062 992.566406 975.40625 1044.035156 991.808594 C 1057.558594 1015.792969 1065.800781 1041.277344 1068.773438 1068.273438 C 1072.273438 1090.523438 1063.277344 1102.519531 1041.785156 1104.257812 C 1043.0625 1071.359375 1035.566406 1040.625 1019.296875 1012.050781 C 975.824219 997.308594 932.339844 983.066406 888.855469 969.320312 C 887.859375 956.820312 889.359375 944.824219 893.351562 933.335938 Z M 893.351562 933.335938 " fill-opacity="1" fill-rule="evenodd"/><path fill="#eff4f5" d="M 785.402344 1000.804688 C 719.890625 1023.433594 656.167969 1050.421875 594.234375 1081.769531 C 592 1071.378906 591.253906 1060.886719 591.988281 1050.285156 C 680.363281 1013.789062 768.820312 976.304688 857.367188 937.832031 C 863.203125 949.925781 861.703125 961.167969 852.871094 971.566406 C 830.285156 981.371094 807.796875 991.117188 785.402344 1000.804688 Z M 785.402344 1000.804688 " fill-opacity="1" fill-rule="evenodd"/><path fill="#e9eeef" d="M 1356.648438 946.828125 C 1356.648438 952.824219 1356.648438 958.824219 1356.648438 964.820312 C 1325.402344 973.003906 1295.421875 983.5 1266.6875 996.308594 C 1249.023438 1000.945312 1231.777344 1006.945312 1214.960938 1014.300781 C 1200.289062 1042.558594 1193.539062 1072.546875 1194.71875 1104.257812 C 1171.996094 1100.964844 1161.5 1087.472656 1163.234375 1063.777344 C 1167.796875 1038.089844 1176.792969 1014.097656 1190.222656 991.808594 C 1243.066406 973.195312 1295.546875 953.703125 1347.652344 933.335938 C 1354.035156 935.605469 1357.027344 940.105469 1356.648438 946.828125 Z M 1356.648438 946.828125 " fill-opacity="1" fill-rule="evenodd"/><path fill="#aeb4b8" d="M 884.355469 996.308594 C 921.785156 1008.28125 959.265625 1020.277344 996.808594 1032.292969 C 1012.675781 1054.332031 1017.175781 1078.324219 1010.300781 1104.257812 C 985.792969 1092.667969 975.292969 1073.925781 978.816406 1048.035156 C 947.757812 1044.015625 917.769531 1035.769531 888.855469 1023.296875 C 884.511719 1014.765625 883.011719 1005.769531 884.355469 996.308594 Z M 884.355469 996.308594 " fill-opacity="1" fill-rule="evenodd"/><path fill="#b4b7b9" d="M 1356.648438 1023.296875 C 1325.769531 1032.890625 1294.28125 1040.382812 1262.1875 1045.785156 C 1260.777344 1061.289062 1257.023438 1076.28125 1250.945312 1090.765625 C 1243.144531 1099.539062 1233.398438 1104.039062 1221.707031 1104.257812 C 1220.96875 1092.171875 1221.71875 1080.175781 1223.957031 1068.273438 C 1229.433594 1036.550781 1248.179688 1020.058594 1280.179688 1018.796875 C 1307.964844 1007.726562 1336.449219 998.730469 1365.644531 991.808594 C 1367.058594 1004.003906 1364.058594 1014.496094 1356.648438 1023.296875 Z M 1356.648438 1023.296875 " fill-opacity="1" fill-rule="evenodd"/><path fill="#c5c9cc" d="M 785.402344 1000.804688 C 718.90625 1036.304688 651.4375 1070.789062 582.992188 1104.257812 C 542.59375 1072.066406 500.609375 1042.078125 457.046875 1014.300781 C 451.050781 1011.300781 451.050781 1008.304688 457.046875 1005.304688 C 500.90625 1023.03125 545.886719 1038.027344 591.988281 1050.285156 C 591.253906 1060.886719 592 1071.378906 594.234375 1081.769531 C 656.167969 1050.421875 719.890625 1023.433594 785.402344 1000.804688 Z M 785.402344 1000.804688 " fill-opacity="1" fill-rule="evenodd"/><path fill="#e3e7e7" d="M 834.878906 1009.800781 C 845.796875 1013.304688 845.796875 1018.554688 834.878906 1025.542969 C 753.53125 1078.597656 670.320312 1128.828125 585.238281 1176.226562 C 583 1162.8125 582.25 1149.320312 582.992188 1135.746094 C 665.523438 1091.480469 749.488281 1049.496094 834.878906 1009.800781 Z M 834.878906 1009.800781 " fill-opacity="1" fill-rule="evenodd"/><path fill="#9c9fa5" d="M 1352.148438 1090.765625 C 1359.777344 1091.597656 1365.773438 1095.347656 1370.140625 1102.011719 C 1206.4375 1247.046875 1041.507812 1248.546875 875.359375 1106.507812 C 879.203125 1101.910156 883.699219 1098.164062 888.855469 1095.261719 C 1044.902344 1228.402344 1199.332031 1226.90625 1352.148438 1090.765625 Z M 1352.148438 1090.765625 " fill-opacity="1" fill-rule="evenodd"/><path fill="#aab0b3" d="M 434.558594 1027.792969 C 455 1040.234375 474.488281 1053.730469 493.03125 1068.273438 C 487.746094 1067.289062 483.246094 1068.789062 479.535156 1072.773438 C 497.28125 1097.277344 517.523438 1119.769531 540.261719 1140.242188 C 539.652344 1155.707031 544.902344 1168.453125 556.003906 1178.476562 C 553.503906 1180.199219 552.003906 1182.449219 551.503906 1185.222656 C 512.550781 1132.773438 473.574219 1080.292969 434.558594 1027.792969 Z M 434.558594 1027.792969 " fill-opacity="1" fill-rule="evenodd"/><path fill="#b0b3b5" d="M 1415.121094 1009.800781 C 1406.667969 1009.320312 1405.171875 1011.570312 1410.621094 1016.546875 C 1491.273438 1072.429688 1573.734375 1125.660156 1658.011719 1176.226562 C 1662.453125 1161.527344 1663.949219 1146.53125 1662.511719 1131.246094 C 1665.511719 1131.246094 1667.007812 1132.746094 1667.007812 1135.746094 C 1667.007812 1162.734375 1667.007812 1189.722656 1667.007812 1216.710938 C 1667.300781 1218.679688 1666.554688 1220.183594 1664.761719 1221.207031 C 1594.335938 1172.488281 1524.617188 1123.011719 1455.601562 1072.773438 C 1435.917969 1057.949219 1417.179688 1041.453125 1399.378906 1023.296875 C 1397.289062 1020.625 1396.539062 1017.625 1397.128906 1014.300781 C 1398.789062 998.496094 1404.785156 996.996094 1415.121094 1009.800781 Z M 1415.121094 1009.800781 " fill-opacity="1" fill-rule="evenodd"/><path fill="#d1d5d5" d="M 493.03125 1068.273438 C 513.304688 1084.773438 534.289062 1100.515625 556.003906 1115.503906 C 563.382812 1120.582031 567.882812 1127.328125 569.496094 1135.746094 C 570.238281 1150.8125 569.488281 1165.804688 567.246094 1180.726562 C 563.578125 1186.675781 558.328125 1189.671875 551.503906 1189.722656 C 551.503906 1188.222656 551.503906 1186.722656 551.503906 1185.222656 C 552.003906 1182.449219 553.503906 1180.199219 556.003906 1178.476562 C 544.902344 1168.453125 539.652344 1155.707031 540.261719 1140.242188 C 517.523438 1119.769531 497.28125 1097.277344 479.535156 1072.773438 C 483.246094 1068.789062 487.746094 1067.289062 493.03125 1068.273438 Z M 493.03125 1068.273438 " fill-opacity="1" fill-rule="evenodd"/><path fill="#d2d5d3" d="M 821.386719 1086.265625 C 814.007812 1135.0625 803.515625 1184.539062 789.898438 1234.703125 C 752.515625 1223.5 716.53125 1209.257812 681.945312 1191.96875 C 729.257812 1157.347656 775.734375 1122.117188 821.386719 1086.265625 Z M 821.386719 1086.265625 " fill-opacity="1" fill-rule="evenodd"/><path fill="#dee2e2" d="M 1415.121094 1009.800781 C 1496.890625 1051.433594 1579.355469 1091.917969 1662.511719 1131.246094 C 1663.949219 1146.53125 1662.453125 1161.527344 1658.011719 1176.226562 C 1573.734375 1125.660156 1491.273438 1072.429688 1410.621094 1016.546875 C 1405.171875 1011.570312 1406.667969 1009.320312 1415.121094 1009.800781 Z M 1415.121094 1009.800781 " fill-opacity="1" fill-rule="evenodd"/><path fill="#12161c" d="M 389.578125 1131.246094 C 419.886719 1205.386719 462.621094 1271.359375 517.769531 1329.160156 C 526.734375 1339.585938 531.980469 1351.578125 533.511719 1365.144531 C 529.015625 1365.144531 524.515625 1365.144531 520.019531 1365.144531 C 339.832031 1173.851562 282.109375 951.949219 346.847656 699.4375 C 350.316406 700.089844 353.316406 701.589844 355.84375 703.9375 C 332.195312 827.222656 335.191406 950.171875 364.835938 1072.773438 C 373.152344 1092.378906 381.398438 1111.871094 389.578125 1131.246094 Z M 389.578125 1131.246094 " fill-opacity="1" fill-rule="evenodd"/><path fill="#aeb2b3" d="M 852.871094 1014.300781 C 840.570312 1034.863281 824.074219 1052.105469 803.394531 1066.027344 C 731.5 1119.964844 658.035156 1171.691406 582.992188 1221.207031 C 579.28125 1204.914062 577.03125 1188.421875 576.242188 1171.730469 C 572.984375 1182.746094 568.484375 1193.242188 562.75 1203.214844 C 558.050781 1199.289062 554.300781 1194.789062 551.503906 1189.722656 C 558.328125 1189.671875 563.578125 1186.675781 567.246094 1180.726562 C 569.488281 1165.804688 570.238281 1150.8125 569.496094 1135.746094 C 573.996094 1135.746094 578.492188 1135.746094 582.992188 1135.746094 C 582.25 1149.320312 583 1162.8125 585.238281 1176.226562 C 670.320312 1128.828125 753.53125 1078.597656 834.878906 1025.542969 C 845.796875 1018.554688 845.796875 1013.304688 834.878906 1009.800781 C 842.089844 1004.871094 848.835938 998.871094 855.121094 991.808594 C 856.847656 999.441406 856.101562 1006.9375 852.871094 1014.300781 Z M 852.871094 1014.300781 " fill-opacity="1" fill-rule="evenodd"/><path fill="#9da0a6" d="M 852.871094 1162.734375 C 897.878906 1194.859375 945.859375 1222.597656 996.808594 1245.945312 C 1099.058594 1284.007812 1198.015625 1276.511719 1293.675781 1223.457031 C 1324.4375 1204.332031 1354.425781 1184.089844 1383.636719 1162.734375 C 1388.789062 1165.632812 1393.289062 1169.382812 1397.128906 1173.976562 C 1224.589844 1319.675781 1047.664062 1325.671875 866.363281 1191.96875 C 853.4375 1184.765625 848.941406 1175.015625 852.871094 1162.734375 Z M 852.871094 1162.734375 " fill-opacity="1" fill-rule="evenodd"/><path fill="#d2d5d6" d="M 1451.105469 1104.257812 C 1493.085938 1135.746094 1535.070312 1167.230469 1577.050781 1198.71875 C 1562.058594 1201.71875 1547.0625 1204.714844 1532.070312 1207.714844 C 1506.128906 1212.351562 1482.136719 1221.347656 1460.101562 1234.703125 C 1454.734375 1232.585938 1451.734375 1228.089844 1451.105469 1221.207031 C 1441.570312 1174.253906 1431.820312 1127.773438 1421.867188 1081.769531 C 1430.53125 1090.941406 1440.277344 1098.4375 1451.105469 1104.257812 Z M 1451.105469 1104.257812 " fill-opacity="1" fill-rule="evenodd"/><path fill="#0f181e" d="M 1864.921875 919.839844 C 1870.097656 943.007812 1870.84375 967 1867.171875 991.808594 C 1843.421875 1075.300781 1807.4375 1153.265625 1759.21875 1225.707031 C 1736.589844 1253.578125 1711.847656 1279.070312 1685 1302.171875 C 1586.503906 1345.253906 1486.050781 1383.484375 1383.636719 1416.871094 C 1368.945312 1439.914062 1357.699219 1464.652344 1349.898438 1491.085938 C 1332.332031 1505.960938 1312.089844 1515.710938 1289.175781 1520.324219 C 1250.214844 1528.964844 1223.976562 1514.71875 1210.460938 1477.59375 C 1205.625 1458.386719 1203.378906 1438.898438 1203.714844 1419.121094 C 1219.890625 1378.53125 1242.378906 1341.792969 1271.183594 1308.917969 C 1323.972656 1287.585938 1376.453125 1265.84375 1428.613281 1243.699219 C 1439.582031 1245.109375 1450.074219 1242.113281 1460.101562 1234.703125 C 1482.136719 1221.347656 1506.128906 1212.351562 1532.070312 1207.714844 C 1548.5625 1207.714844 1565.054688 1207.714844 1581.546875 1207.714844 C 1581.425781 1215.355469 1578.425781 1221.355469 1572.550781 1225.707031 C 1541.160156 1235.378906 1509.671875 1245.128906 1478.09375 1254.941406 C 1417.078125 1280.207031 1355.601562 1304.195312 1293.675781 1326.910156 C 1272.054688 1355.917969 1253.308594 1386.65625 1237.449219 1419.121094 C 1234.320312 1438.933594 1235.816406 1458.425781 1241.949219 1477.59375 C 1247.632812 1487.070312 1255.878906 1491.570312 1266.6875 1491.085938 C 1264.527344 1467.148438 1263.03125 1443.160156 1262.1875 1419.121094 C 1270.691406 1420.03125 1277.4375 1417.035156 1282.429688 1410.125 C 1295.871094 1390.746094 1305.617188 1369.753906 1311.667969 1347.152344 C 1329.78125 1344.277344 1347.773438 1340.53125 1365.644531 1335.90625 C 1448.246094 1303.582031 1530.710938 1271.347656 1613.03125 1239.199219 C 1619.90625 1239.121094 1622.15625 1236.121094 1619.78125 1230.203125 C 1606.089844 1218.730469 1591.84375 1208.234375 1577.050781 1198.71875 C 1535.070312 1167.230469 1493.085938 1135.746094 1451.105469 1104.257812 C 1451.492188 1099.777344 1449.988281 1096.03125 1446.605469 1093.015625 C 1453.835938 1088.296875 1456.832031 1081.550781 1455.601562 1072.773438 C 1524.617188 1123.011719 1594.335938 1172.488281 1664.761719 1221.207031 C 1666.554688 1220.183594 1667.300781 1218.679688 1667.007812 1216.710938 C 1673.003906 1210.714844 1679.003906 1204.714844 1685 1198.71875 C 1705.992188 1168.730469 1726.980469 1138.746094 1747.972656 1108.757812 C 1750.972656 1108.757812 1752.472656 1107.257812 1752.472656 1104.257812 C 1772.578125 1080.363281 1792.066406 1055.621094 1810.945312 1030.042969 C 1794.210938 1036.21875 1779.21875 1045.964844 1765.964844 1059.277344 C 1734.847656 1078.566406 1706.363281 1101.058594 1680.503906 1126.75 C 1677.253906 1131.476562 1672.757812 1134.476562 1667.007812 1135.746094 C 1667.007812 1132.746094 1665.511719 1131.246094 1662.511719 1131.246094 C 1579.355469 1091.917969 1496.890625 1051.433594 1415.121094 1009.800781 C 1404.785156 996.996094 1398.789062 998.496094 1397.128906 1014.300781 C 1394.15625 1008.820312 1391.15625 1002.824219 1388.132812 996.308594 C 1380.441406 1006.238281 1373.695312 1016.734375 1367.890625 1027.792969 C 1364.875 1024.410156 1361.128906 1022.910156 1356.648438 1023.296875 C 1364.058594 1014.496094 1367.058594 1004.003906 1365.644531 991.808594 C 1336.449219 998.730469 1307.964844 1007.726562 1280.179688 1018.796875 C 1283.996094 1010.648438 1283.996094 1003.898438 1280.179688 998.554688 C 1275.917969 996.382812 1271.417969 995.636719 1266.6875 996.308594 C 1295.421875 983.5 1325.402344 973.003906 1356.648438 964.820312 C 1356.648438 958.824219 1356.648438 952.824219 1356.648438 946.828125 C 1367.050781 942.816406 1368.554688 946.570312 1361.144531 958.074219 C 1363.140625 966 1365.390625 965.25 1367.890625 955.824219 C 1370.097656 961.640625 1370.847656 967.640625 1370.140625 973.816406 C 1377.378906 975.644531 1383.378906 975.644531 1388.132812 973.816406 C 1378.078125 966.367188 1376.582031 957.371094 1383.636719 946.828125 C 1394.714844 971.285156 1414.207031 986.277344 1442.109375 991.808594 C 1514.273438 1028.265625 1586.992188 1064.25 1660.261719 1099.761719 C 1690.109375 1086.457031 1716.351562 1067.714844 1738.976562 1043.535156 C 1756.96875 1031.539062 1774.960938 1019.546875 1792.953125 1007.550781 C 1755.976562 1014.753906 1719.992188 1026 1685 1041.289062 C 1683.824219 1034.640625 1685.320312 1028.644531 1689.5 1023.296875 C 1692.136719 1024.234375 1694.382812 1025.738281 1696.246094 1027.792969 C 1703.382812 1019.429688 1701.136719 1013.429688 1689.5 1009.800781 C 1730.8125 994.808594 1773.542969 982.8125 1817.691406 973.816406 C 1822.324219 972.304688 1824.574219 969.304688 1824.4375 964.820312 C 1829.386719 960.0625 1835.386719 956.3125 1842.429688 953.578125 C 1839.929688 951.855469 1838.433594 949.605469 1837.933594 946.828125 C 1841.703125 945.289062 1843.203125 942.296875 1842.429688 937.832031 C 1850.207031 940.609375 1856.957031 945.105469 1862.671875 951.328125 C 1864.90625 940.9375 1865.652344 930.441406 1864.921875 919.839844 Z M 1864.921875 919.839844 " fill-opacity="1" fill-rule="evenodd"/><path fill="#576164" d="M 1680.503906 1126.75 C 1680.503906 1134.246094 1680.503906 1141.742188 1680.503906 1149.238281 C 1679.085938 1166.652344 1680.585938 1183.144531 1685 1198.71875 C 1679.003906 1204.714844 1673.003906 1210.714844 1667.007812 1216.710938 C 1667.007812 1189.722656 1667.007812 1162.734375 1667.007812 1135.746094 C 1672.757812 1134.476562 1677.253906 1131.476562 1680.503906 1126.75 Z M 1680.503906 1126.75 " fill-opacity="1" fill-rule="evenodd"/><path fill="#b2b7b7" d="M 1747.972656 1108.757812 C 1726.980469 1138.746094 1705.992188 1168.730469 1685 1198.71875 C 1680.585938 1183.144531 1679.085938 1166.652344 1680.503906 1149.238281 C 1689.417969 1147.011719 1698.414062 1144.765625 1707.492188 1142.492188 C 1719.191406 1128.496094 1732.683594 1117.25 1747.972656 1108.757812 Z M 1747.972656 1108.757812 " fill-opacity="1" fill-rule="evenodd"/><path fill="#d5d9d8" d="M 1765.964844 1059.277344 C 1769.90625 1058.691406 1772.90625 1060.1875 1774.960938 1063.777344 C 1763.933594 1075.339844 1756.433594 1088.835938 1752.472656 1104.257812 C 1752.472656 1107.257812 1750.972656 1108.757812 1747.972656 1108.757812 C 1732.683594 1117.25 1719.191406 1128.496094 1707.492188 1142.492188 C 1698.414062 1144.765625 1689.417969 1147.011719 1680.503906 1149.238281 C 1680.503906 1141.742188 1680.503906 1134.246094 1680.503906 1126.75 C 1706.363281 1101.058594 1734.847656 1078.566406 1765.964844 1059.277344 Z M 1765.964844 1059.277344 " fill-opacity="1" fill-rule="evenodd"/><path fill="#c8cccd" d="M 1442.109375 991.808594 C 1515.101562 1015.554688 1585.566406 1045.539062 1653.515625 1081.769531 C 1657.894531 1071.679688 1659.398438 1061.1875 1658.011719 1050.285156 C 1666.175781 1045.199219 1675.171875 1042.203125 1685 1041.289062 C 1719.992188 1026 1755.976562 1014.753906 1792.953125 1007.550781 C 1774.960938 1019.546875 1756.96875 1031.539062 1738.976562 1043.535156 C 1716.351562 1067.714844 1690.109375 1086.457031 1660.261719 1099.761719 C 1586.992188 1064.25 1514.273438 1028.265625 1442.109375 991.808594 Z M 1442.109375 991.808594 " fill-opacity="1" fill-rule="evenodd"/><path fill="#acb3b6" d="M 1752.472656 1104.257812 C 1756.433594 1088.835938 1763.933594 1075.339844 1774.960938 1063.777344 C 1772.90625 1060.1875 1769.90625 1058.691406 1765.964844 1059.277344 C 1779.21875 1045.964844 1794.210938 1036.21875 1810.945312 1030.042969 C 1792.066406 1055.621094 1772.578125 1080.363281 1752.472656 1104.257812 Z M 1752.472656 1104.257812 " fill-opacity="1" fill-rule="evenodd"/><path fill="#a3a8ae" d="M 1671.507812 1275.183594 C 1671.25 1270.195312 1669.753906 1265.695312 1667.007812 1261.6875 C 1675.425781 1260.074219 1682.171875 1255.578125 1687.25 1248.195312 C 1720.234375 1203.214844 1753.222656 1158.234375 1786.207031 1113.253906 C 1764.6875 1178.683594 1726.453125 1232.660156 1671.507812 1275.183594 Z M 1671.507812 1275.183594 " fill-opacity="1" fill-rule="evenodd"/><path fill="#687179" d="M 1577.050781 1198.71875 C 1591.84375 1208.234375 1606.089844 1218.730469 1619.78125 1230.203125 C 1622.15625 1236.121094 1619.90625 1239.121094 1613.03125 1239.199219 C 1612.6875 1233.578125 1609.6875 1229.828125 1604.035156 1227.953125 C 1593.648438 1225.71875 1583.152344 1224.972656 1572.550781 1225.707031 C 1578.425781 1221.355469 1581.425781 1215.355469 1581.546875 1207.714844 C 1565.054688 1207.714844 1548.5625 1207.714844 1532.070312 1207.714844 C 1547.0625 1204.714844 1562.058594 1201.71875 1577.050781 1198.71875 Z M 1577.050781 1198.71875 " fill-opacity="1" fill-rule="evenodd"/><path fill="#ebeff0" d="M 1572.550781 1225.707031 C 1583.152344 1224.972656 1593.648438 1225.71875 1604.035156 1227.953125 C 1609.6875 1229.828125 1612.6875 1233.578125 1613.03125 1239.199219 C 1530.710938 1271.347656 1448.246094 1303.582031 1365.644531 1335.90625 C 1347.773438 1340.53125 1329.78125 1344.277344 1311.667969 1347.152344 C 1305.617188 1369.753906 1295.871094 1390.746094 1282.429688 1410.125 C 1277.4375 1417.035156 1270.691406 1420.03125 1262.1875 1419.121094 C 1263.03125 1443.160156 1264.527344 1467.148438 1266.6875 1491.085938 C 1255.878906 1491.570312 1247.632812 1487.070312 1241.949219 1477.59375 C 1235.816406 1458.425781 1234.320312 1438.933594 1237.449219 1419.121094 C 1253.308594 1386.65625 1272.054688 1355.917969 1293.675781 1326.910156 C 1355.601562 1304.195312 1417.078125 1280.207031 1478.09375 1254.941406 C 1509.671875 1245.128906 1541.160156 1235.378906 1572.550781 1225.707031 Z M 1572.550781 1225.707031 " fill-opacity="1" fill-rule="evenodd"/><path fill="#11151a" d="M 1887.410156 699.4375 C 1894.804688 698.476562 1901.554688 699.980469 1907.652344 703.9375 C 1963.867188 955.964844 1903.894531 1174.867188 1727.730469 1360.644531 C 1721.253906 1354.214844 1719.753906 1346.714844 1723.234375 1338.15625 C 1887.285156 1158.519531 1940.515625 950.113281 1882.914062 712.933594 C 1883.746094 708.058594 1885.242188 703.558594 1887.410156 699.4375 Z M 1887.410156 699.4375 " fill-opacity="1" fill-rule="evenodd"/><path fill="#9ba1a4" d="M 569.496094 1266.1875 C 569.496094 1267.683594 569.496094 1269.1875 569.496094 1270.683594 C 550.347656 1258.3125 533.109375 1243.320312 517.769531 1225.707031 C 494.109375 1191.90625 473.871094 1155.921875 457.046875 1117.753906 C 497.808594 1161.941406 535.289062 1211.417969 569.496094 1266.1875 Z M 569.496094 1266.1875 " fill-opacity="1" fill-rule="evenodd"/><path fill="#b8bcc0" d="M 569.496094 1270.683594 C 569.496094 1269.1875 569.496094 1267.683594 569.496094 1266.1875 C 578.421875 1263.238281 587.417969 1260.242188 596.484375 1257.191406 C 605.480469 1259.441406 614.476562 1261.6875 623.472656 1263.9375 C 713.132812 1299.320312 803.089844 1333.804688 893.351562 1367.390625 C 872.933594 1384.535156 850.441406 1387.535156 825.882812 1376.386719 C 739.425781 1342.355469 653.964844 1307.121094 569.496094 1270.683594 Z M 569.496094 1270.683594 " fill-opacity="1" fill-rule="evenodd"/><path fill="#e9ecee" d="M 645.960938 1212.210938 C 745.710938 1248.472656 844.667969 1287.457031 942.832031 1329.160156 C 962.769531 1357.40625 980.011719 1387.390625 994.558594 1419.121094 C 998.511719 1440.652344 997.007812 1461.640625 990.058594 1482.089844 C 980.15625 1492.171875 968.910156 1495.171875 956.324219 1491.085938 C 961.96875 1467.917969 966.46875 1444.679688 969.820312 1421.367188 C 961.59375 1420.140625 954.84375 1416.390625 949.578125 1410.125 C 937.761719 1390.246094 926.515625 1370.003906 915.84375 1349.398438 C 817.359375 1313.074219 719.90625 1274.089844 623.472656 1232.453125 C 633 1227.734375 640.492188 1220.988281 645.960938 1212.210938 Z M 645.960938 1212.210938 " fill-opacity="1" fill-rule="evenodd"/><path fill="#bbbdbe" d="M 1667.007812 1261.6875 C 1669.753906 1265.695312 1671.25 1270.195312 1671.507812 1275.183594 C 1576.558594 1314.65625 1480.601562 1351.394531 1383.636719 1385.382812 C 1368.207031 1387.449219 1354.714844 1382.949219 1343.152344 1371.890625 C 1440.980469 1334.234375 1538.4375 1295.253906 1635.523438 1254.941406 C 1647.539062 1251.195312 1658.03125 1253.445312 1667.007812 1261.6875 Z M 1667.007812 1261.6875 " fill-opacity="1" fill-rule="evenodd"/><path fill="#9ea1a7" d="M 992.308594 1320.164062 C 1076.328125 1318.664062 1160.285156 1320.164062 1244.195312 1324.660156 C 1231.613281 1331.269531 1218.117188 1335.015625 1203.714844 1335.90625 C 1136.109375 1339.648438 1068.640625 1338.152344 1001.304688 1331.410156 C 995.65625 1329.53125 992.65625 1325.785156 992.308594 1320.164062 Z M 992.308594 1320.164062 " fill-opacity="1" fill-rule="evenodd"/><path fill="#9a9da3" d="M 1181.226562 1356.148438 C 1192.128906 1354.761719 1202.621094 1356.265625 1212.710938 1360.644531 C 1208.75 1367.261719 1202.753906 1371.007812 1194.71875 1371.890625 C 1139.246094 1374.890625 1083.765625 1374.890625 1028.292969 1371.890625 C 1023.019531 1370.003906 1018.523438 1367.011719 1014.800781 1362.894531 C 1071.054688 1362.132812 1126.527344 1359.886719 1181.226562 1356.148438 Z M 1181.226562 1356.148438 " fill-opacity="1" fill-rule="evenodd"/><path fill="#9b9ea4" d="M 1140.742188 1401.128906 C 1156.703125 1399.304688 1171.695312 1401.554688 1185.722656 1407.875 C 1180.671875 1412.570312 1174.675781 1415.566406 1167.730469 1416.871094 C 1133.246094 1419.871094 1098.761719 1419.871094 1064.277344 1416.871094 C 1057.808594 1415.886719 1051.8125 1413.636719 1046.285156 1410.125 C 1078.46875 1407.125 1109.953125 1404.128906 1140.742188 1401.128906 Z M 1140.742188 1401.128906 " fill-opacity="1" fill-rule="evenodd"/><path fill="#111418" d="M 609.980469 1383.136719 C 672.085938 1441.285156 744.054688 1484.015625 825.882812 1511.328125 C 833.035156 1522.484375 830.785156 1530.726562 819.136719 1536.066406 C 721.019531 1497.953125 634.808594 1442.476562 560.5 1369.640625 C 553.390625 1362.253906 550.394531 1353.257812 551.503906 1342.652344 C 556.238281 1341.984375 560.734375 1342.730469 565 1344.902344 C 578.097656 1360.28125 593.09375 1373.023438 609.980469 1383.136719 Z M 609.980469 1383.136719 " fill-opacity="1" fill-rule="evenodd"/><path fill="#b8bbbd" d="M 1334.15625 1374.140625 C 1346.808594 1383 1352.058594 1394.996094 1349.898438 1410.125 C 1341.632812 1429.652344 1333.382812 1449.144531 1325.160156 1468.597656 C 1316.164062 1473.09375 1307.167969 1477.59375 1298.171875 1482.089844 C 1292.960938 1465.800781 1292.214844 1449.304688 1295.925781 1432.613281 C 1309.667969 1413.648438 1322.414062 1394.160156 1334.15625 1374.140625 Z M 1334.15625 1374.140625 " fill-opacity="1" fill-rule="evenodd"/><path fill="#b2b4b2" d="M 893.351562 1374.140625 C 908.121094 1391.507812 920.863281 1410.996094 931.585938 1432.613281 C 933.152344 1446.566406 930.902344 1460.058594 924.839844 1473.09375 C 919.226562 1470.667969 913.976562 1467.667969 909.097656 1464.097656 C 898.121094 1443.648438 888.375 1422.660156 879.859375 1401.128906 C 888.472656 1394.0625 892.96875 1385.066406 893.351562 1374.140625 Z M 893.351562 1374.140625 " fill-opacity="1" fill-rule="evenodd"/><path fill="#12161b" d="M 1676.003906 1347.152344 C 1690.4375 1349.457031 1694.9375 1356.957031 1689.5 1369.640625 C 1611.625 1442.71875 1522.417969 1498.199219 1421.867188 1536.066406 C 1418.394531 1535.414062 1415.394531 1533.917969 1412.871094 1531.570312 C 1409.429688 1524.527344 1410.183594 1518.53125 1415.121094 1513.578125 C 1515.542969 1478.40625 1602.503906 1422.933594 1676.003906 1347.152344 Z M 1676.003906 1347.152344 " fill-opacity="1" fill-rule="evenodd"/><path stroke-linecap="round" transform="matrix(0.749667, 0, 0, 0.749667, 316.256084, 1865.714689)" fill="none" stroke-linejoin="miter" d="M 7.500429 7.49833 L 411.820687 7.49833 " stroke="#000000" stroke-width="15" stroke-opacity="1" stroke-miterlimit="4"/><path stroke-linecap="round" transform="matrix(0.749667, 0, 0, 0.749667, 1613.98512, 1865.714689)" fill="none" stroke-linejoin="miter" d="M 7.502339 7.49833 L 411.817387 7.49833 " stroke="#000000" stroke-width="15" stroke-opacity="1" stroke-miterlimit="4"/><g fill="#0a1117" fill-opacity="1"><g transform="translate(308.844259, 1805.404921)"><g><path d="M 115.9375 -63.140625 C 115.9375 -42.691406 110.382812 -27.054688 99.28125 -16.234375 C 88.1875 -5.410156 72.210938 0 51.359375 0 L 17.03125 0 L 17.03125 -123.90625 L 55 -123.90625 C 74.269531 -123.90625 89.242188 -118.566406 99.921875 -107.890625 C 110.597656 -97.210938 115.9375 -82.296875 115.9375 -63.140625 Z M 100.6875 -62.640625 C 100.6875 -78.796875 96.628906 -90.96875 88.515625 -99.15625 C 80.410156 -107.351562 68.363281 -111.453125 52.375 -111.453125 L 31.4375 -111.453125 L 31.4375 -12.453125 L 48.984375 -12.453125 C 66.160156 -12.453125 79.070312 -16.675781 87.71875 -25.125 C 96.363281 -33.570312 100.6875 -46.078125 100.6875 -62.640625 Z M 100.6875 -62.640625 "/></g></g><g transform="translate(435.38223, 1805.404921)"><g><path d="M 48.5625 -61.953125 L 81.625 -123.90625 L 97.21875 -123.90625 L 55.859375 -48.0625 L 55.859375 0 L 41.28125 0 L 41.28125 -47.375 L 0 -123.90625 L 15.765625 -123.90625 Z M 48.5625 -61.953125 "/></g></g><g transform="translate(532.595258, 1805.404921)"><g><path d="M 113.828125 0 L 97.390625 0 L 29.671875 -104 L 28.984375 -104 C 29.890625 -91.789062 30.34375 -80.601562 30.34375 -70.4375 L 30.34375 0 L 17.03125 0 L 17.03125 -123.90625 L 33.3125 -123.90625 L 100.859375 -20.34375 L 101.53125 -20.34375 C 101.414062 -21.863281 101.160156 -26.765625 100.765625 -35.046875 C 100.378906 -43.328125 100.238281 -49.242188 100.34375 -52.796875 L 100.34375 -123.90625 L 113.828125 -123.90625 Z M 113.828125 0 "/></g></g><g transform="translate(663.45569, 1805.404921)"><g><path d="M 94.921875 0 L 79.5 -39.40625 L 29.828125 -39.40625 L 14.578125 0 L 0 0 L 48.984375 -124.421875 L 61.109375 -124.421875 L 109.84375 0 Z M 75.015625 -52.375 L 60.59375 -90.765625 C 58.726562 -95.628906 56.8125 -101.59375 54.84375 -108.65625 C 53.59375 -103.226562 51.8125 -97.265625 49.5 -90.765625 L 34.921875 -52.375 Z M 75.015625 -52.375 "/></g></g><g transform="translate(773.29709, 1805.404921)"><g><path d="M 71.875 0 L 29.828125 -109.84375 L 29.15625 -109.84375 C 29.945312 -101.144531 30.34375 -90.804688 30.34375 -78.828125 L 30.34375 0 L 17.03125 0 L 17.03125 -123.90625 L 38.734375 -123.90625 L 77.96875 -21.703125 L 78.65625 -21.703125 L 118.234375 -123.90625 L 139.765625 -123.90625 L 139.765625 0 L 125.359375 0 L 125.359375 -79.84375 C 125.359375 -88.988281 125.753906 -98.929688 126.546875 -109.671875 L 125.859375 -109.671875 L 83.484375 0 Z M 71.875 0 "/></g></g><g transform="translate(930.007543, 1805.404921)"><g><path d="M 17.03125 0 L 17.03125 -123.90625 L 31.4375 -123.90625 L 31.4375 0 Z M 17.03125 0 "/></g></g><g transform="translate(978.402171, 1805.404921)"><g><path d="M 70.09375 -112.8125 C 56.476562 -112.8125 45.726562 -108.273438 37.84375 -99.203125 C 29.957031 -90.140625 26.015625 -77.722656 26.015625 -61.953125 C 26.015625 -45.734375 29.8125 -33.203125 37.40625 -24.359375 C 45.007812 -15.523438 55.847656 -11.109375 69.921875 -11.109375 C 78.566406 -11.109375 88.425781 -12.660156 99.5 -15.765625 L 99.5 -3.140625 C 90.914062 0.078125 80.320312 1.6875 67.71875 1.6875 C 49.46875 1.6875 35.382812 -3.847656 25.46875 -14.921875 C 15.550781 -25.992188 10.59375 -41.726562 10.59375 -62.125 C 10.59375 -74.894531 12.976562 -86.082031 17.75 -95.6875 C 22.53125 -105.289062 29.425781 -112.691406 38.4375 -117.890625 C 47.445312 -123.085938 58.054688 -125.6875 70.265625 -125.6875 C 83.253906 -125.6875 94.609375 -123.316406 104.328125 -118.578125 L 98.234375 -106.203125 C 88.847656 -110.609375 79.46875 -112.8125 70.09375 -112.8125 Z M 70.09375 -112.8125 "/></g></g><g transform="translate(1087.904555, 1805.404921)"><g/></g><g transform="translate(1132.993772, 1805.404921)"><g><path d="M 125.1875 0 L 110.9375 0 L 85.9375 -82.96875 C 84.75 -86.644531 83.421875 -91.28125 81.953125 -96.875 C 80.484375 -102.46875 79.722656 -105.828125 79.671875 -106.953125 C 78.429688 -99.492188 76.453125 -91.332031 73.734375 -82.46875 L 49.5 0 L 35.265625 0 L 2.28125 -123.90625 L 17.546875 -123.90625 L 37.125 -47.375 C 39.832031 -36.644531 41.8125 -26.925781 43.0625 -18.21875 C 44.582031 -28.5625 46.835938 -38.675781 49.828125 -48.5625 L 72.046875 -123.90625 L 87.296875 -123.90625 L 110.609375 -47.890625 C 113.316406 -39.128906 115.601562 -29.238281 117.46875 -18.21875 C 118.539062 -26.238281 120.578125 -36.015625 123.578125 -47.546875 L 143.0625 -123.90625 L 158.328125 -123.90625 Z M 125.1875 0 "/></g></g><g transform="translate(1293.687672, 1805.404921)"><g><path d="M 86.109375 0 L 17.03125 0 L 17.03125 -123.90625 L 86.109375 -123.90625 L 86.109375 -111.109375 L 31.4375 -111.109375 L 31.4375 -71.1875 L 82.8125 -71.1875 L 82.8125 -58.484375 L 31.4375 -58.484375 L 31.4375 -12.875 L 86.109375 -12.875 Z M 86.109375 0 "/></g></g><g transform="translate(1390.222666, 1805.404921)"><g><path d="M 17.03125 -123.90625 L 52.046875 -123.90625 C 68.484375 -123.90625 80.375 -121.445312 87.71875 -116.53125 C 95.0625 -111.625 98.734375 -103.859375 98.734375 -93.234375 C 98.734375 -85.890625 96.6875 -79.828125 92.59375 -75.046875 C 88.5 -70.273438 82.523438 -67.179688 74.671875 -65.765625 L 74.671875 -64.921875 C 93.484375 -61.703125 102.890625 -51.816406 102.890625 -35.265625 C 102.890625 -24.179688 99.144531 -15.53125 91.65625 -9.3125 C 84.175781 -3.101562 73.710938 0 60.265625 0 L 17.03125 0 Z M 31.4375 -70.859375 L 55.171875 -70.859375 C 65.347656 -70.859375 72.664062 -72.453125 77.125 -75.640625 C 81.59375 -78.835938 83.828125 -84.222656 83.828125 -91.796875 C 83.828125 -98.742188 81.335938 -103.753906 76.359375 -106.828125 C 71.390625 -109.910156 63.484375 -111.453125 52.640625 -111.453125 L 31.4375 -111.453125 Z M 31.4375 -58.65625 L 31.4375 -12.296875 L 57.296875 -12.296875 C 67.296875 -12.296875 74.820312 -14.226562 79.875 -18.09375 C 84.9375 -21.96875 87.46875 -28.03125 87.46875 -36.28125 C 87.46875 -43.957031 84.878906 -49.601562 79.703125 -53.21875 C 74.535156 -56.84375 66.671875 -58.65625 56.109375 -58.65625 Z M 31.4375 -58.65625 "/></g></g><g transform="translate(1502.691445, 1805.404921)"><g/></g><g transform="translate(1547.780662, 1805.404921)"><g><path d="M 115.9375 -63.140625 C 115.9375 -42.691406 110.382812 -27.054688 99.28125 -16.234375 C 88.1875 -5.410156 72.210938 0 51.359375 0 L 17.03125 0 L 17.03125 -123.90625 L 55 -123.90625 C 74.269531 -123.90625 89.242188 -118.566406 99.921875 -107.890625 C 110.597656 -97.210938 115.9375 -82.296875 115.9375 -63.140625 Z M 100.6875 -62.640625 C 100.6875 -78.796875 96.628906 -90.96875 88.515625 -99.15625 C 80.410156 -107.351562 68.363281 -111.453125 52.375 -111.453125 L 31.4375 -111.453125 L 31.4375 -12.453125 L 48.984375 -12.453125 C 66.160156 -12.453125 79.070312 -16.675781 87.71875 -25.125 C 96.363281 -33.570312 100.6875 -46.078125 100.6875 -62.640625 Z M 100.6875 -62.640625 "/></g></g><g transform="translate(1674.318633, 1805.404921)"><g><path d="M 110.609375 -123.90625 L 110.609375 -43.734375 C 110.609375 -29.609375 106.34375 -18.503906 97.8125 -10.421875 C 89.28125 -2.347656 77.554688 1.6875 62.640625 1.6875 C 47.722656 1.6875 36.179688 -2.378906 28.015625 -10.515625 C 19.847656 -18.648438 15.765625 -29.835938 15.765625 -44.078125 L 15.765625 -123.90625 L 30.171875 -123.90625 L 30.171875 -43.0625 C 30.171875 -32.71875 32.992188 -24.773438 38.640625 -19.234375 C 44.296875 -13.703125 52.601562 -10.9375 63.5625 -10.9375 C 74.019531 -10.9375 82.070312 -13.71875 87.71875 -19.28125 C 93.375 -24.84375 96.203125 -32.820312 96.203125 -43.21875 L 96.203125 -123.90625 Z M 110.609375 -123.90625 "/></g></g><g transform="translate(1800.687095, 1805.404921)"><g><path d="M 124.59375 -62.125 C 124.59375 -42.289062 119.578125 -26.695312 109.546875 -15.34375 C 99.515625 -3.988281 85.570312 1.6875 67.71875 1.6875 C 49.46875 1.6875 35.382812 -3.890625 25.46875 -15.046875 C 15.550781 -26.203125 10.59375 -41.953125 10.59375 -62.296875 C 10.59375 -82.460938 15.5625 -98.097656 25.5 -109.203125 C 35.445312 -120.304688 49.578125 -125.859375 67.890625 -125.859375 C 85.691406 -125.859375 99.59375 -120.207031 109.59375 -108.90625 C 119.59375 -97.601562 124.59375 -82.007812 124.59375 -62.125 Z M 25.84375 -62.125 C 25.84375 -45.34375 29.414062 -32.613281 36.5625 -23.9375 C 43.71875 -15.269531 54.101562 -10.9375 67.71875 -10.9375 C 81.445312 -10.9375 91.8125 -15.257812 98.8125 -23.90625 C 105.820312 -32.550781 109.328125 -45.289062 109.328125 -62.125 C 109.328125 -78.789062 105.835938 -91.429688 98.859375 -100.046875 C 91.890625 -108.671875 81.566406 -112.984375 67.890625 -112.984375 C 54.160156 -112.984375 43.71875 -108.644531 36.5625 -99.96875 C 29.414062 -91.289062 25.84375 -78.675781 25.84375 -62.125 Z M 25.84375 -62.125 "/></g></g></g><g fill="#0a1117" fill-opacity="1"><g transform="translate(685.39397, 1899.480677)"><g><path d="M 39.828125 0 L 33.359375 -16.53125 L 12.515625 -16.53125 L 6.109375 0 L 0 0 L 20.546875 -52.203125 L 25.640625 -52.203125 L 46.09375 0 Z M 31.46875 -21.96875 L 25.421875 -38.078125 C 24.640625 -40.117188 23.832031 -42.625 23 -45.59375 C 22.476562 -43.3125 21.734375 -40.804688 20.765625 -38.078125 L 14.65625 -21.96875 Z M 31.46875 -21.96875 "/></g></g><g transform="translate(731.480487, 1899.480677)"><g/></g><g transform="translate(750.398718, 1899.480677)"><g><path d="M 52.515625 0 L 46.546875 0 L 36.0625 -34.8125 C 35.5625 -36.351562 35.003906 -38.296875 34.390625 -40.640625 C 33.773438 -42.992188 33.453125 -44.40625 33.421875 -44.875 C 32.898438 -41.75 32.070312 -38.320312 30.9375 -34.59375 L 20.765625 0 L 14.796875 0 L 0.953125 -51.984375 L 7.359375 -51.984375 L 15.578125 -19.875 C 16.710938 -15.375 17.539062 -11.296875 18.0625 -7.640625 C 18.707031 -11.984375 19.65625 -16.226562 20.90625 -20.375 L 30.21875 -51.984375 L 36.625 -51.984375 L 46.40625 -20.09375 C 47.539062 -16.414062 48.5 -12.265625 49.28125 -7.640625 C 49.738281 -11.003906 50.59375 -15.109375 51.84375 -19.953125 L 60.03125 -51.984375 L 66.421875 -51.984375 Z M 52.515625 0 "/></g></g><g transform="translate(817.821585, 1899.480677)"><g><path d="M 36.125 0 L 7.140625 0 L 7.140625 -51.984375 L 36.125 -51.984375 L 36.125 -46.625 L 13.1875 -46.625 L 13.1875 -29.875 L 34.75 -29.875 L 34.75 -24.53125 L 13.1875 -24.53125 L 13.1875 -5.40625 L 36.125 -5.40625 Z M 36.125 0 "/></g></g><g transform="translate(858.325089, 1899.480677)"><g><path d="M 7.140625 -51.984375 L 21.828125 -51.984375 C 28.734375 -51.984375 33.722656 -50.953125 36.796875 -48.890625 C 39.878906 -46.828125 41.421875 -43.566406 41.421875 -39.109375 C 41.421875 -36.035156 40.5625 -33.492188 38.84375 -31.484375 C 37.125 -29.484375 34.617188 -28.1875 31.328125 -27.59375 L 31.328125 -27.234375 C 39.222656 -25.890625 43.171875 -21.742188 43.171875 -14.796875 C 43.171875 -10.148438 41.597656 -6.519531 38.453125 -3.90625 C 35.316406 -1.300781 30.925781 0 25.28125 0 L 7.140625 0 Z M 13.1875 -29.734375 L 23.15625 -29.734375 C 27.414062 -29.734375 30.484375 -30.398438 32.359375 -31.734375 C 34.234375 -33.078125 35.171875 -35.335938 35.171875 -38.515625 C 35.171875 -41.429688 34.125 -43.535156 32.03125 -44.828125 C 29.945312 -46.117188 26.628906 -46.765625 22.078125 -46.765625 L 13.1875 -46.765625 Z M 13.1875 -24.609375 L 13.1875 -5.15625 L 24.03125 -5.15625 C 28.226562 -5.15625 31.390625 -5.96875 33.515625 -7.59375 C 35.640625 -9.21875 36.703125 -11.757812 36.703125 -15.21875 C 36.703125 -18.445312 35.613281 -20.816406 33.4375 -22.328125 C 31.269531 -23.847656 27.972656 -24.609375 23.546875 -24.609375 Z M 13.1875 -24.609375 "/></g></g><g transform="translate(905.513984, 1899.480677)"><g/></g><g transform="translate(924.432215, 1899.480677)"><g><path d="M 48.640625 -26.5 C 48.640625 -17.914062 46.3125 -11.351562 41.65625 -6.8125 C 37 -2.269531 30.296875 0 21.546875 0 L 7.140625 0 L 7.140625 -51.984375 L 23.078125 -51.984375 C 31.160156 -51.984375 37.441406 -49.742188 41.921875 -45.265625 C 46.398438 -40.785156 48.640625 -34.53125 48.640625 -26.5 Z M 42.25 -26.28125 C 42.25 -33.0625 40.546875 -38.171875 37.140625 -41.609375 C 33.742188 -45.046875 28.6875 -46.765625 21.96875 -46.765625 L 13.1875 -46.765625 L 13.1875 -5.234375 L 20.546875 -5.234375 C 27.753906 -5.234375 33.171875 -7.003906 36.796875 -10.546875 C 40.429688 -14.085938 42.25 -19.332031 42.25 -26.28125 Z M 42.25 -26.28125 "/></g></g><g transform="translate(977.524167, 1899.480677)"><g><path d="M 36.125 0 L 7.140625 0 L 7.140625 -51.984375 L 36.125 -51.984375 L 36.125 -46.625 L 13.1875 -46.625 L 13.1875 -29.875 L 34.75 -29.875 L 34.75 -24.53125 L 13.1875 -24.53125 L 13.1875 -5.40625 L 36.125 -5.40625 Z M 36.125 0 "/></g></g><g transform="translate(1018.027672, 1899.480677)"><g><path d="M 36.484375 -13.828125 C 36.484375 -9.253906 34.820312 -5.6875 31.5 -3.125 C 28.1875 -0.5625 23.6875 0.71875 18 0.71875 C 11.832031 0.71875 7.085938 -0.078125 3.765625 -1.671875 L 3.765625 -7.5 C 5.898438 -6.601562 8.222656 -5.894531 10.734375 -5.375 C 13.253906 -4.851562 15.742188 -4.59375 18.203125 -4.59375 C 22.234375 -4.59375 25.269531 -5.351562 27.3125 -6.875 C 29.351562 -8.40625 30.375 -10.535156 30.375 -13.265625 C 30.375 -15.066406 30.007812 -16.539062 29.28125 -17.6875 C 28.5625 -18.84375 27.351562 -19.90625 25.65625 -20.875 C 23.957031 -21.84375 21.378906 -22.945312 17.921875 -24.1875 C 13.085938 -25.914062 9.628906 -27.960938 7.546875 -30.328125 C 5.472656 -32.703125 4.4375 -35.796875 4.4375 -39.609375 C 4.4375 -43.617188 5.941406 -46.804688 8.953125 -49.171875 C 11.972656 -51.546875 15.957031 -52.734375 20.90625 -52.734375 C 26.070312 -52.734375 30.828125 -51.785156 35.171875 -49.890625 L 33.28125 -44.625 C 28.988281 -46.425781 24.816406 -47.328125 20.765625 -47.328125 C 17.566406 -47.328125 15.066406 -46.640625 13.265625 -45.265625 C 11.460938 -43.890625 10.5625 -41.984375 10.5625 -39.546875 C 10.5625 -37.742188 10.890625 -36.265625 11.546875 -35.109375 C 12.210938 -33.960938 13.332031 -32.910156 14.90625 -31.953125 C 16.488281 -30.992188 18.90625 -29.929688 22.15625 -28.765625 C 27.601562 -26.828125 31.351562 -24.742188 33.40625 -22.515625 C 35.457031 -20.285156 36.484375 -17.390625 36.484375 -13.828125 Z M 36.484375 -13.828125 "/></g></g><g transform="translate(1057.997769, 1899.480677)"><g><path d="M 7.140625 0 L 7.140625 -51.984375 L 13.1875 -51.984375 L 13.1875 0 Z M 7.140625 0 "/></g></g><g transform="translate(1078.302862, 1899.480677)"><g><path d="M 30.015625 -27.234375 L 47.6875 -27.234375 L 47.6875 -1.953125 C 44.9375 -1.078125 42.140625 -0.414062 39.296875 0.03125 C 36.453125 0.488281 33.15625 0.71875 29.40625 0.71875 C 21.539062 0.71875 15.410156 -1.617188 11.015625 -6.296875 C 6.628906 -10.984375 4.4375 -17.550781 4.4375 -26 C 4.4375 -31.40625 5.519531 -36.140625 7.6875 -40.203125 C 9.863281 -44.265625 12.988281 -47.367188 17.0625 -49.515625 C 21.144531 -51.660156 25.925781 -52.734375 31.40625 -52.734375 C 36.945312 -52.734375 42.113281 -51.710938 46.90625 -49.671875 L 44.5625 -44.34375 C 39.863281 -46.332031 35.347656 -47.328125 31.015625 -47.328125 C 24.679688 -47.328125 19.734375 -45.441406 16.171875 -41.671875 C 12.617188 -37.898438 10.84375 -32.675781 10.84375 -26 C 10.84375 -18.976562 12.554688 -13.65625 15.984375 -10.03125 C 19.410156 -6.40625 24.441406 -4.59375 31.078125 -4.59375 C 34.679688 -4.59375 38.203125 -5.003906 41.640625 -5.828125 L 41.640625 -21.828125 L 30.015625 -21.828125 Z M 30.015625 -27.234375 "/></g></g><g transform="translate(1131.323692, 1899.480677)"><g><path d="M 47.765625 0 L 40.859375 0 L 12.453125 -43.640625 L 12.15625 -43.640625 C 12.539062 -38.515625 12.734375 -33.816406 12.734375 -29.546875 L 12.734375 0 L 7.140625 0 L 7.140625 -51.984375 L 13.96875 -51.984375 L 42.3125 -8.53125 L 42.609375 -8.53125 C 42.554688 -9.175781 42.445312 -11.234375 42.28125 -14.703125 C 42.113281 -18.171875 42.054688 -20.65625 42.109375 -22.15625 L 42.109375 -51.984375 L 47.765625 -51.984375 Z M 47.765625 0 "/></g></g><g transform="translate(1186.229234, 1899.480677)"><g/></g><g transform="translate(1205.147465, 1899.480677)"><g><path d="M 29.40625 -47.328125 C 23.695312 -47.328125 19.1875 -45.425781 15.875 -41.625 C 12.570312 -37.820312 10.921875 -32.613281 10.921875 -26 C 10.921875 -19.1875 12.515625 -13.925781 15.703125 -10.21875 C 18.890625 -6.507812 23.4375 -4.65625 29.34375 -4.65625 C 32.96875 -4.65625 37.101562 -5.304688 41.75 -6.609375 L 41.75 -1.3125 C 38.144531 0.0390625 33.695312 0.71875 28.40625 0.71875 C 20.75 0.71875 14.835938 -1.601562 10.671875 -6.25 C 6.515625 -10.90625 4.4375 -17.507812 4.4375 -26.0625 C 4.4375 -31.425781 5.4375 -36.117188 7.4375 -40.140625 C 9.445312 -44.171875 12.34375 -47.273438 16.125 -49.453125 C 19.90625 -51.640625 24.359375 -52.734375 29.484375 -52.734375 C 34.929688 -52.734375 39.695312 -51.738281 43.78125 -49.75 L 41.21875 -44.5625 C 37.28125 -46.40625 33.34375 -47.328125 29.40625 -47.328125 Z M 29.40625 -47.328125 "/></g></g><g transform="translate(1251.09174, 1899.480677)"><g><path d="M 52.28125 -26.0625 C 52.28125 -17.738281 50.175781 -11.191406 45.96875 -6.421875 C 41.757812 -1.660156 35.90625 0.71875 28.40625 0.71875 C 20.75 0.71875 14.835938 -1.617188 10.671875 -6.296875 C 6.515625 -10.984375 4.4375 -17.597656 4.4375 -26.140625 C 4.4375 -34.597656 6.523438 -41.15625 10.703125 -45.8125 C 14.878906 -50.476562 20.804688 -52.8125 28.484375 -52.8125 C 35.953125 -52.8125 41.785156 -50.4375 45.984375 -45.6875 C 50.179688 -40.945312 52.28125 -34.40625 52.28125 -26.0625 Z M 10.84375 -26.0625 C 10.84375 -19.019531 12.34375 -13.679688 15.34375 -10.046875 C 18.34375 -6.410156 22.695312 -4.59375 28.40625 -4.59375 C 34.164062 -4.59375 38.515625 -6.40625 41.453125 -10.03125 C 44.398438 -13.65625 45.875 -19 45.875 -26.0625 C 45.875 -33.0625 44.410156 -38.367188 41.484375 -41.984375 C 38.554688 -45.597656 34.222656 -47.40625 28.484375 -47.40625 C 22.722656 -47.40625 18.34375 -45.582031 15.34375 -41.9375 C 12.34375 -38.300781 10.84375 -33.007812 10.84375 -26.0625 Z M 10.84375 -26.0625 "/></g></g><g transform="translate(1307.810871, 1899.480677)"><g><path d="M 30.15625 0 L 12.515625 -46.09375 L 12.234375 -46.09375 C 12.566406 -42.4375 12.734375 -38.097656 12.734375 -33.078125 L 12.734375 0 L 7.140625 0 L 7.140625 -51.984375 L 16.25 -51.984375 L 32.71875 -9.109375 L 33 -9.109375 L 49.609375 -51.984375 L 58.640625 -51.984375 L 58.640625 0 L 52.59375 0 L 52.59375 -33.5 C 52.59375 -37.34375 52.757812 -41.515625 53.09375 -46.015625 L 52.8125 -46.015625 L 35.03125 0 Z M 30.15625 0 "/></g></g><g transform="translate(1373.56239, 1899.480677)"><g><path d="M 40.109375 -36.84375 C 40.109375 -31.582031 38.3125 -27.535156 34.71875 -24.703125 C 31.132812 -21.867188 26 -20.453125 19.3125 -20.453125 L 13.1875 -20.453125 L 13.1875 0 L 7.140625 0 L 7.140625 -51.984375 L 20.625 -51.984375 C 33.613281 -51.984375 40.109375 -46.9375 40.109375 -36.84375 Z M 13.1875 -25.640625 L 18.640625 -25.640625 C 23.992188 -25.640625 27.867188 -26.503906 30.265625 -28.234375 C 32.660156 -29.960938 33.859375 -32.738281 33.859375 -36.5625 C 33.859375 -40 32.726562 -42.554688 30.46875 -44.234375 C 28.21875 -45.921875 24.710938 -46.765625 19.953125 -46.765625 L 13.1875 -46.765625 Z M 13.1875 -25.640625 "/></g></g><g transform="translate(1417.40859, 1899.480677)"><g><path d="M 39.828125 0 L 33.359375 -16.53125 L 12.515625 -16.53125 L 6.109375 0 L 0 0 L 20.546875 -52.203125 L 25.640625 -52.203125 L 46.09375 0 Z M 31.46875 -21.96875 L 25.421875 -38.078125 C 24.640625 -40.117188 23.832031 -42.625 23 -45.59375 C 22.476562 -43.3125 21.734375 -40.804688 20.765625 -38.078125 L 14.65625 -21.96875 Z M 31.46875 -21.96875 "/></g></g><g transform="translate(1463.495107, 1899.480677)"><g><path d="M 47.765625 0 L 40.859375 0 L 12.453125 -43.640625 L 12.15625 -43.640625 C 12.539062 -38.515625 12.734375 -33.816406 12.734375 -29.546875 L 12.734375 0 L 7.140625 0 L 7.140625 -51.984375 L 13.96875 -51.984375 L 42.3125 -8.53125 L 42.609375 -8.53125 C 42.554688 -9.175781 42.445312 -11.234375 42.28125 -14.703125 C 42.113281 -18.171875 42.054688 -20.65625 42.109375 -22.15625 L 42.109375 -51.984375 L 47.765625 -51.984375 Z M 47.765625 0 "/></g></g><g transform="translate(1518.400649, 1899.480677)"><g><path d="M 20.375 -26 L 34.25 -51.984375 L 40.78125 -51.984375 L 23.4375 -20.15625 L 23.4375 0 L 17.3125 0 L 17.3125 -19.875 L 0 -51.984375 L 6.609375 -51.984375 Z M 20.375 -26 "/></g></g></g></svg>